999
dxflib 2.2.0.0
  0
SECTION
  2
HEADER
  9
$ACADVER
  1
AC1015
  9
$HANDSEED
  5
FFFF
  9
$DIMLIM
 70
0
  9
$DIMLUNIT
 70
2
  9
$DIMTIX
 70
0
  9
$AUNITS
 70
0
  9
$QTEXTMODE
 70
0
  9
$USERR1
 40
0.0
  9
$DIMALTU
 70
2
  9
$UCSORGBOTTOM
 10
0.0
 20
0.0
 30
0.0
  9
$USERR2
 40
0.0
  9
$USERR3
 40
0.0
  9
$USERR4
 40
0.0
  9
$LIMMAX
 10
420.0
 20
297.0
  9
$USERR5
 40
0.0
  9
$PELEVATION
 40
0.0
  9
$DIMALTZ
 70
0
  9
$DIMADEC
 70
0
  9
$JOINSTYLE
280
0
  9
$DIMATFIT
 70
3
  9
$TILEMODE
 70
1
  9
$PEXTMIN
 10
0.0
 20
0.0
 30
0.0
  9
$TDUSRTIMER
 40
0.000004213
  9
$DWGCODEPAGE
  3
ANSI_1252
  9
$UCSORTHOVIEW
 70
0
  9
$DIMSOXD
 70
0
  9
$DIMTZIN
 70
0
  9
$SPLINETYPE
 70
6
  9
$DIMLFAC
 40
1.0
  9
$DIMSE1
 70
0
  9
$FILLETRAD
 40
0.0
  9
$DIMSE2
 70
0
  9
$PSTYLEMODE
290
1
  9
$TEXTSTYLE
  7
Standard
  9
$DIMTSZ
 40
0.0
  9
$PUCSXDIR
 10
1.0
 20
0.0
 30
0.0
  9
$DIMTXSTY
  7
Standard
  9
$PLIMMAX
 10
420.0
 20
297.0
  9
$DIMTM
 40
0.0
  9
$UCSORG
 10
0.0
 20
0.0
 30
0.0
  9
$DIMTP
 40
0.0
  9
$PSLTSCALE
 70
1
  9
$ANGBASE
 50
0.0
  9
$PUCSYDIR
 10
0.0
 20
1.0
 30
0.0
  9
$EXTNAMES
290
1
  9
$DIMASZ
 40
1.7999999999999989
  9
$PUCSORTHOVIEW
 70
0
  9
$INSBASE
 10
0.0
 20
0.0
 30
0.0
  9
$UNITMODE
 70
0
  9
$MEASUREMENT
 70
1
  9
$EXTMAX
 10
420.0
 20
297.0
 30
0.0
  9
$ELEVATION
 40
0.0
  9
$TDCREATE
 40
2456644.9171414929442108
  9
$DIMDEC
 70
4
  9
$CELTYPE
  6
ByLayer
  9
$MENU
  1
.
  9
$ANGDIR
 70
0
  9
$DIMALTTD
 70
2
  9
$TREEDEPTH
 70
3020
  9
$LTSCALE
 40
1.0
  9
$PROXYGRAPHICS
 70
1
  9
$DIMTMOVE
 70
0
  9
$DIMAZIN
 70
0
  9
$TDUPDATE
 40
2456644.9171414929442108
  9
$DIMTOLJ
 70
1
  9
$DIMCEN
 40
0.09
  9
$DIMTVP
 40
0.0
  9
$TRACEWID
 40
0.05
  9
$CMLSTYLE
  2
Standard
  9
$DISPSILH
 70
0
  9
$DIMSTYLE
  2
Standard
  9
$SKETCHINC
 40
0.1
  9
$FILLMODE
 70
1
  9
$PLINEGEN
 70
0
  9
$DIMLWD
 70
-2
  9
$THICKNESS
 40
0.0
  9
$DIMLWE
 70
-2
  9
$CELTSCALE
 40
1.0
  9
$PUCSORG
 10
0.0
 20
0.0
 30
0.0
  9
$DIMALTTZ
 70
0
  9
$INSUNITS
 70
4
  9
$UCSORGBACK
 10
0.0
 20
0.0
 30
0.0
  9
$PLINEWID
 40
0.0
  9
$PEXTMAX
 10
420.0
 20
297.0
 30
0.0
  9
$DIMJUST
 70
0
  9
$UCSYDIR
 10
0.0
 20
1.0
 30
0.0
  9
$PUCSORGBACK
 10
0.0
 20
0.0
 30
0.0
  9
$PDSIZE
 40
0.0
  9
$PUCSORGBOTTOM
 10
0.0
 20
0.0
 30
0.0
  9
$DIMUPT
 70
0
  9
$DIMTAD
 70
0
  9
$UCSXDIR
 10
1.0
 20
0.0
 30
0.0
  9
$MAXACTVP
 70
64
  9
$DIMSAH
 70
0
  9
$TDUCREATE
 40
2456644.9171414929442108
  9
$DIMFRAC
 70
0
  9
$USERI1
 70
0
  9
$USERI2
 70
0
  9
$UCSORGRIGHT
 10
0.0
 20
0.0
 30
0.0
  9
$USERI3
 70
0
  9
$CELWEIGHT
370
-1
  9
$LWDISPLAY
290
0
  9
$SKPOLY
 70
0
  9
$USERI4
 70
0
  9
$USERI5
 70
0
  9
$UCSORGTOP
 10
0.0
 20
0.0
 30
0.0
  9
$LIMMIN
 10
0.0
 20
0.0
  9
$ACADMAINTVER
 70
18
  9
$MIRRTEXT
 70
0
  9
$TDUUPDATE
 40
2456644.9171414929442108
  9
$TEXTSIZE
 40
0.2
  9
$DIMGAP
 40
0.09
  9
$LUPREC
 70
4
  9
$CECOLOR
 62
256
  9
$DIMSD1
 70
0
  9
$DIMSD2
 70
0
  9
$WORLDVIEW
 70
1
  9
$PUCSORGRIGHT
 10
0.0
 20
0.0
 30
0.0
  9
$PLIMCHECK
 70
0
  9
$DIMTFAC
 40
1.0
  9
$CMLJUST
 70
0
  9
$USRTIMER
 70
1
  9
$SURFU
 70
6
  9
$SURFV
 70
6
  9
$DIMASO
 70
1
  9
$DIMDLE
 40
0.0
  9
$EXTMIN
 10
0.0
 20
0.0
 30
0.0
  9
$UCSORGLEFT
 10
0.0
 20
0.0
 30
0.0
  9
$OLESTARTUP
290
0
  9
$PUCSORGFRONT
 10
0.0
 20
0.0
 30
0.0
  9
$DIMDLI
 40
0.38
  9
$LUNITS
 70
2
  9
$DIMCLRD
 70
0
  9
$SHADEDIF
 70
70
  9
$DIMCLRE
 70
0
  9
$SPLINESEGS
 70
8
  9
$PUCSORGLEFT
 10
0.0
 20
0.0
 30
0.0
  9
$DIMALTRND
 40
0.0
  9
$DIMRND
 40
0.0
  9
$DIMALT
 70
0
  9
$FINGERPRINTGUID
  2
{08B8F187-03E9-4E53-8C90-86F99FC6D6CB}
  9
$DIMCLRT
 70
0
  9
$PUCSORGTOP
 10
0.0
 20
0.0
 30
0.0
  9
$DIMTOH
 70
1
  9
$UCSORGFRONT
 10
0.0
 20
0.0
 30
0.0
  9
$VISRETAIN
 70
1
  9
$SHADEDGE
 70
3
  9
$DIMTOL
 70
0
  9
$SURFTYPE
 70
6
  9
$VERSIONGUID
  2
{56822CAB-24CF-4DEE-8BDD-1E3886BD5A89}
  9
$CHAMFERA
 40
0.0
  9
$SURFTAB1
 70
6
  9
$CHAMFERB
 40
0.0
  9
$SURFTAB2
 70
6
  9
$CHAMFERC
 40
0.0
  9
$AUPREC
 70
0
  9
$CHAMFERD
 40
0.0
  9
$DIMTDEC
 70
4
  9
$PDMODE
 70
0
  9
$SPLFRAME
 70
0
  9
$PLIMMIN
 10
0.0
 20
0.0
  9
$XEDIT
290
1
  9
$DIMDSEP
 70
46
  9
$LIMCHECK
 70
0
  9
$PINSBASE
 10
0.0
 20
0.0
 30
0.0
  9
$ORTHOMODE
 70
0
  9
$PSVPSCALE
 40
0.0
  9
$CLAYER
  8
0
  9
$DIMSHO
 70
1
  9
$DIMTOFL
 70
0
  9
$DIMTXT
 40
0.3499999940395355
  9
$DIMEXE
 40
0.18
  9
$TDINDWG
 40
0.000004213
  9
$REGENMODE
 70
1
  9
$ATTMODE
 70
1
  9
$CMLSCALE
 40
1.0
  9
$DIMTIH
 70
1
  9
$DIMZIN
 70
0
  9
$CEPSNTYPE
380
0
  9
$DIMSCALE
 40
1.0
  9
$DIMALTD
 70
2
  9
$DIMAUNIT
 70
0
  9
$DIMALTF
 40
25.3999999999999986
  9
$DIMEXO
 40
0.0625
  9
$ENDCAPS
280
0
  0
ENDSEC
  0
SECTION
  2
TABLES
  0
TABLE
  2
VPORT
  5
8
100
AcDbSymbolTable
 70
1
  0
VPORT
  5
30
100
AcDbSymbolTableRecord
100
AcDbViewportTableRecord
  2
*Active
 70
0
 10
0.0
 20
0.0
 11
1.0
 21
1.0
 12
286.3055555555554861
 22
148.5
 13
0.0
 23
0.0
 14
10.0
 24
10.0
 15
10.0
 25
10.0
 16
0.0
 26
0.0
 36
1.0
 17
0.0
 27
0.0
 37
0.0
 40
297.0
 41
1.92798353909465
 42
50.0
 43
0.0
 44
0.0
 50
0.0
 51
0.0
 71
0
 72
100
 73
1
 74
3
 75
1
 76
1
 77
0
 78
0
281
0
 65
1
110
0.0
120
0.0
130
0.0
111
1.0
121
0.0
131
0.0
112
0.0
122
1.0
132
0.0
 79
0
146
0.0
  0
ENDTAB
  0
TABLE
  2
LTYPE
  5
5
100
AcDbSymbolTable
 70
21
  0
LTYPE
  5
14
100
AcDbSymbolTableRecord
100
AcDbLinetypeTableRecord
  2
ByBlock
 70
0
  3

 72
65
 73
0
 40
0.0
  0
LTYPE
  5
15
100
AcDbSymbolTableRecord
100
AcDbLinetypeTableRecord
  2
ByLayer
 70
0
  3

 72
65
 73
0
 40
0.0
  0
LTYPE
  5
16
100
AcDbSymbolTableRecord
100
AcDbLinetypeTableRecord
  2
CONTINUOUS
 70
0
  3
Solid line
 72
65
 73
0
 40
0.0
  0
LTYPE
  5
31
100
AcDbSymbolTableRecord
100
AcDbLinetypeTableRecord
  2
DOT
 70
0
  3
Dot . . . . . . . . . . . . . . . . . . . . . .
 72
65
 73
2
 40
6.3499999999999996
 49
0.0
 74
0
 49
-6.3499999999999996
 74
0
  0
LTYPE
  5
32
100
AcDbSymbolTableRecord
100
AcDbLinetypeTableRecord
  2
DOT2
 70
0
  3
Dot (.5x) .....................................
 72
65
 73
2
 40
3.1749999999999998
 49
0.0
 74
0
 49
-3.1749999999999998
 74
0
  0
LTYPE
  5
33
100
AcDbSymbolTableRecord
100
AcDbLinetypeTableRecord
  2
DOTX2
 70
0
  3
Dot (2x) .  .  .  .  .  .  .  .  .  .  .  .  .
 72
65
 73
2
 40
12.6999999999999993
 49
0.0
 74
0
 49
-12.6999999999999993
 74
0
  0
LTYPE
  5
34
100
AcDbSymbolTableRecord
100
AcDbLinetypeTableRecord
  2
DASHED
 70
0
  3
Dashed __ __ __ __ __ __ __ __ __ __ __ __ __ _
 72
65
 73
2
 40
19.0500000000000007
 49
12.6999999999999993
 74
0
 49
-6.3499999999999996
 74
0
  0
LTYPE
  5
35
100
AcDbSymbolTableRecord
100
AcDbLinetypeTableRecord
  2
DASHED2
 70
0
  3
Dashed (.5x) _ _ _ _ _ _ _ _ _ _ _ _ _ _ _ _ _
 72
65
 73
2
 40
9.5250000000000004
 49
6.3499999999999996
 74
0
 49
-3.1749999999999998
 74
0
  0
LTYPE
  5
36
100
AcDbSymbolTableRecord
100
AcDbLinetypeTableRecord
  2
DASHEDX2
 70
0
  3
Dashed (2x) ____  ____  ____  ____  ____  ___
 72
65
 73
2
 40
38.1000000000000014
 49
25.3999999999999986
 74
0
 49
-12.6999999999999993
 74
0
  0
LTYPE
  5
37
100
AcDbSymbolTableRecord
100
AcDbLinetypeTableRecord
  2
DASHDOT
 70
0
  3
Dash dot __ . __ . __ . __ . __ . __ . __ . __
 72
65
 73
4
 40
25.3999999999999986
 49
12.6999999999999993
 74
0
 49
-6.3499999999999996
 74
0
 49
0.0
 74
0
 49
-6.3499999999999996
 74
0
  0
LTYPE
  5
38
100
AcDbSymbolTableRecord
100
AcDbLinetypeTableRecord
  2
DASHDOT2
 70
0
  3
Dash dot (.5x) _._._._._._._._._._._._._._._.
 72
65
 73
4
 40
12.6999999999999993
 49
6.3499999999999996
 74
0
 49
-3.1749999999999998
 74
0
 49
0.0
 74
0
 49
-3.1749999999999998
 74
0
  0
LTYPE
  5
39
100
AcDbSymbolTableRecord
100
AcDbLinetypeTableRecord
  2
DASHDOTX2
 70
0
  3
Dash dot (2x) ____  .  ____  .  ____  .  ___
 72
65
 73
4
 40
50.7999999999999972
 49
25.3999999999999986
 74
0
 49
-12.6999999999999993
 74
0
 49
0.0
 74
0
 49
-12.6999999999999993
 74
0
  0
LTYPE
  5
3A
100
AcDbSymbolTableRecord
100
AcDbLinetypeTableRecord
  2
DIVIDE
 70
0
  3
Divide ____ . . ____ . . ____ . . ____ . . ____
 72
65
 73
6
 40
31.75
 49
12.6999999999999993
 74
0
 49
-6.3499999999999996
 74
0
 49
0.0
 74
0
 49
-6.3499999999999996
 74
0
 49
0.0
 74
0
 49
-6.3499999999999996
 74
0
  0
LTYPE
  5
3B
100
AcDbSymbolTableRecord
100
AcDbLinetypeTableRecord
  2
DIVIDE2
 70
0
  3
Divide (.5x) __..__..__..__..__..__..__..__.._
 72
65
 73
6
 40
15.875
 49
6.3499999999999996
 74
0
 49
-3.1749999999999998
 74
0
 49
0.0
 74
0
 49
-3.1749999999999998
 74
0
 49
0.0
 74
0
 49
-3.1749999999999998
 74
0
  0
LTYPE
  5
3C
100
AcDbSymbolTableRecord
100
AcDbLinetypeTableRecord
  2
DIVIDEX2
 70
0
  3
Divide (2x) ________  .  .  ________  .  .  _
 72
65
 73
6
 40
63.5
 49
25.3999999999999986
 74
0
 49
-12.6999999999999993
 74
0
 49
0.0
 74
0
 49
-12.6999999999999993
 74
0
 49
0.0
 74
0
 49
-12.6999999999999993
 74
0
  0
LTYPE
  5
3D
100
AcDbSymbolTableRecord
100
AcDbLinetypeTableRecord
  2
CENTER
 70
0
  3
Center ____ _ ____ _ ____ _ ____ _ ____ _ ____
 72
65
 73
4
 40
50.7999999999999972
 49
31.75
 74
0
 49
-6.3499999999999996
 74
0
 49
6.3499999999999996
 74
0
 49
-6.3499999999999996
 74
0
  0
LTYPE
  5
3E
100
AcDbSymbolTableRecord
100
AcDbLinetypeTableRecord
  2
CENTER2
 70
0
  3
Center (.5x) ___ _ ___ _ ___ _ ___ _ ___ _ ___
 72
65
 73
4
 40
28.5749999999999993
 49
19.0500000000000007
 74
0
 49
-3.1749999999999998
 74
0
 49
3.1749999999999998
 74
0
 49
-3.1749999999999998
 74
0
  0
LTYPE
  5
3F
100
AcDbSymbolTableRecord
100
AcDbLinetypeTableRecord
  2
CENTERX2
 70
0
  3
Center (2x) ________  __  ________  __  _____
 72
65
 73
4
 40
101.5999999999999943
 49
63.5
 74
0
 49
-12.6999999999999993
 74
0
 49
12.6999999999999993
 74
0
 49
-12.6999999999999993
 74
0
  0
LTYPE
  5
40
100
AcDbSymbolTableRecord
100
AcDbLinetypeTableRecord
  2
BORDER
 70
0
  3
Border __ __ . __ __ . __ __ . __ __ . __ __ .
 72
65
 73
6
 40
44.4500000000000028
 49
12.6999999999999993
 74
0
 49
-6.3499999999999996
 74
0
 49
12.6999999999999993
 74
0
 49
-6.3499999999999996
 74
0
 49
0.0
 74
0
 49
-6.3499999999999996
 74
0
  0
LTYPE
  5
41
100
AcDbSymbolTableRecord
100
AcDbLinetypeTableRecord
  2
BORDER2
 70
0
  3
Border (.5x) __.__.__.__.__.__.__.__.__.__.__.
 72
65
 73
6
 40
22.2250000000000014
 49
6.3499999999999996
 74
0
 49
-3.1749999999999998
 74
0
 49
6.3499999999999996
 74
0
 49
-3.1749999999999998
 74
0
 49
0.0
 74
0
 49
-3.1749999999999998
 74
0
  0
LTYPE
  5
42
100
AcDbSymbolTableRecord
100
AcDbLinetypeTableRecord
  2
BORDERX2
 70
0
  3
Border (2x) ____  ____  .  ____  ____  .  ___
 72
65
 73
6
 40
88.9000000000000057
 49
25.3999999999999986
 74
0
 49
-12.6999999999999993
 74
0
 49
25.3999999999999986
 74
0
 49
-12.6999999999999993
 74
0
 49
0.0
 74
0
 49
-12.6999999999999993
 74
0
  0
ENDTAB
  0
TABLE
  2
LAYER
  5
2
100
AcDbSymbolTable
 70
4
  0
LAYER
  5
10
100
AcDbSymbolTableRecord
100
AcDbLayerTableRecord
  2
0
 70
0
 62
7
  6
CONTINUOUS
290
1
370
-3
390
F
  0
LAYER
  5
43
100
AcDbSymbolTableRecord
100
AcDbLayerTableRecord
  2
Border (ISO)
 70
0
 62
7
  6
CONTINUOUS
290
1
370
70
390
F
  0
LAYER
  5
44
100
AcDbSymbolTableRecord
100
AcDbLayerTableRecord
  2
Title (ISO)
 70
0
 62
7
  6
CONTINUOUS
290
1
370
50
390
F
  0
LAYER
  5
45
100
AcDbSymbolTableRecord
100
AcDbLayerTableRecord
  2
Visible (ISO)
 70
0
 62
7
  6
CONTINUOUS
290
1
370
50
390
F
  0
ENDTAB
  0
TABLE
  2
STYLE
  5
3
100
AcDbSymbolTable
 70
1
  0
STYLE
  5
11
100
AcDbSymbolTableRecord
100
AcDbTextStyleTableRecord
  2
Standard
 70
0
 40
0.0
 41
0.75
 50
0.0
 71
0
 42
2.5
  3
txt
  4

  0
ENDTAB
  0
TABLE
  2
VIEW
  5
6
100
AcDbSymbolTable
 70
0
  0
ENDTAB
  0
TABLE
  2
UCS
  5
7
100
AcDbSymbolTable
 70
0
  0
ENDTAB
  0
TABLE
  2
APPID
  5
9
100
AcDbSymbolTable
 70
1
  0
APPID
  5
12
100
AcDbSymbolTableRecord
100
AcDbRegAppTableRecord
  2
ACAD
 70
0
  0
ENDTAB
  0
TABLE
  2
DIMSTYLE
  5
A
100
AcDbSymbolTable
 70
1
100
AcDbDimStyleTable
 71
0
  0
DIMSTYLE
105
27
100
AcDbSymbolTableRecord
100
AcDbDimStyleTableRecord
  2
Standard
 41
1.7999999999999989
 42
0.0625
 43
3.75
 44
0.18
 70
0
 73
0
 74
0
 77
1
 78
8
140
0.3499999940395355
141
2.5
143
0.03937007874016
147
0.09
171
3
172
1
271
2
272
2
274
3
278
44
283
0
284
8
340
11
  0
ENDTAB
  0
TABLE
  2
BLOCK_RECORD
  5
1
100
AcDbSymbolTable
 70
1
  0
BLOCK_RECORD
  5
1F
100
AcDbSymbolTableRecord
100
AcDbBlockTableRecord
  2
*Model_Space
340
22
  0
BLOCK_RECORD
  5
1B
100
AcDbSymbolTableRecord
100
AcDbBlockTableRecord
  2
*Paper_Space
340
1E
  0
BLOCK_RECORD
  5
23
100
AcDbSymbolTableRecord
100
AcDbBlockTableRecord
  2
*Paper_Space0
340
26
  0
BLOCK_RECORD
  5
46
100
AcDbSymbolTableRecord
100
AcDbBlockTableRecord
  2
_Closed
340
0
  0
BLOCK_RECORD
  5
47
100
AcDbSymbolTableRecord
100
AcDbBlockTableRecord
  2
DatumFilled45
340
0
  0
BLOCK_RECORD
  5
48
100
AcDbSymbolTableRecord
100
AcDbBlockTableRecord
  2
Filled-1
340
0
  0
BLOCK_RECORD
  5
49
100
AcDbSymbolTableRecord
100
AcDbBlockTableRecord
  2
Borders Default Border
340
0
  0
BLOCK_RECORD
  5
4A
100
AcDbSymbolTableRecord
100
AcDbBlockTableRecord
  2
Title Blocks ISO
340
0
  0
ENDTAB
  0
ENDSEC
  0
SECTION
  2
BLOCKS
  0
BLOCK
  5
20
100
AcDbEntity
  8
0
100
AcDbBlockBegin
  2
*Model_Space
 70
0
 10
0.0
 20
0.0
 30
0.0
  3
*Model_Space
  1

  0
ENDBLK
  5
21
100
AcDbEntity
  8
0
100
AcDbBlockEnd
  0
BLOCK
  5
1C
100
AcDbEntity
 67
1
  8
0
100
AcDbBlockBegin
  2
*Paper_Space
 70
0
 10
0.0
 20
0.0
 30
0.0
  3
*Paper_Space
  1

  0
ENDBLK
  5
1D
100
AcDbEntity
 67
1
  8
0
100
AcDbBlockEnd
  0
BLOCK
  5
24
100
AcDbEntity
  8
0
100
AcDbBlockBegin
  2
*Paper_Space0
 70
0
 10
0.0
 20
0.0
 30
0.0
  3
*Paper_Space0
  1

  0
ENDBLK
  5
25
100
AcDbEntity
  8
0
100
AcDbBlockEnd
  0
BLOCK
  5
4B
100
AcDbEntity
  8
0
100
AcDbBlockBegin
  2
_Closed
 70
0
 10
0.0
 20
0.0
 30
0.0
  3
_Closed
  1

  0
LINE
  5
4C
100
AcDbEntity
100
AcDbLine
  8
0
 62
0
370
-2
  6
ByBlock
 10
-1.0
 20
0.1666666666666666
 30
0.0
 11
0.0
 21
0.0
 31
0.0
  0
LINE
  5
4D
100
AcDbEntity
100
AcDbLine
  8
0
 62
0
370
-2
  6
ByBlock
 10
0.0
 20
0.0
 30
0.0
 11
-1.0
 21
-0.1666666666666666
 31
0.0
  0
LINE
  5
4E
100
AcDbEntity
100
AcDbLine
  8
0
 62
0
370
-2
  6
ByBlock
 10
-1.0
 20
0.1666666666666666
 30
0.0
 11
-1.0
 21
-0.1666666666666666
 31
0.0
  0
LINE
  5
4F
100
AcDbEntity
100
AcDbLine
  8
0
 62
0
370
-2
  6
ByBlock
 10
0.0
 20
0.0
 30
0.0
 11
-1.0
 21
0.0
 31
0.0
  0
ENDBLK
  5
50
100
AcDbEntity
  8
0
100
AcDbBlockEnd
  0
BLOCK
  5
51
100
AcDbEntity
  8
0
100
AcDbBlockBegin
  2
DatumFilled45
 70
0
 10
0.0
 20
0.0
 30
0.0
  3
DatumFilled45
  1

  0
LWPOLYLINE
  5
52
  8
0
 62
0
370
-1
  6
ByLayer
100
AcDbEntity
100
AcDbPolyline
 90
4
 70
0
 10
0.0
 20
1.0
 10
0.0
 20
-1.0
 10
-1.0
 20
0.0
 10
0.0
 20
1.0
  0
ENDBLK
  5
53
100
AcDbEntity
  8
0
100
AcDbBlockEnd
  0
BLOCK
  5
54
100
AcDbEntity
  8
0
100
AcDbBlockBegin
  2
Filled-1
 70
0
 10
0.0
 20
0.0
 30
0.0
  3
Filled-1
  1

  0
LINE
  5
55
100
AcDbEntity
100
AcDbLine
  8
0
 62
0
370
-1
  6
ByLayer
 10
-1.0
 20
0.0
 30
0.0
 11
0.0
 21
0.0
 31
0.0
  0
LWPOLYLINE
  5
56
  8
0
 62
0
370
-1
  6
ByLayer
100
AcDbEntity
100
AcDbPolyline
 90
4
 70
0
 10
-1.0
 20
-0.1
 10
0.0
 20
0.0
 10
-1.0
 20
0.1
 10
-1.0
 20
-0.1
  0
LINE
  5
57
100
AcDbEntity
100
AcDbLine
  8
0
 62
0
370
-1
  6
ByLayer
 10
-1.0
 20
-0.1
 30
0.0
 11
0.0
 21
0.0
 31
0.0
  0
LINE
  5
58
100
AcDbEntity
100
AcDbLine
  8
0
 62
0
370
-1
  6
ByLayer
 10
0.0
 20
0.0
 30
0.0
 11
-1.0
 21
0.1
 31
0.0
  0
LINE
  5
59
100
AcDbEntity
100
AcDbLine
  8
0
 62
0
370
-1
  6
ByLayer
 10
-1.0
 20
0.1
 30
0.0
 11
-1.0
 21
-0.1
 31
0.0
  0
ENDBLK
  5
5A
100
AcDbEntity
  8
0
100
AcDbBlockEnd
  0
BLOCK
  5
5B
100
AcDbEntity
  8
0
100
AcDbBlockBegin
  2
Borders Default Border
 70
0
 10
0.0
 20
0.0
 30
0.0
  3
Borders Default Border
  1

  0
LWPOLYLINE
  5
5C
  8
Border (ISO)
 62
256
370
-1
  6
ByLayer
100
AcDbEntity
100
AcDbPolyline
 90
5
 70
0
 10
10.0
 20
10.0
 10
10.0
 20
287.0000076293945881
 10
410.0
 20
287.0000076293945881
 10
410.0
 20
10.0
 10
10.0
 20
10.0
  0
LWPOLYLINE
  5
5D
  8
Border (ISO)
 62
256
370
-1
  6
ByLayer
100
AcDbEntity
100
AcDbPolyline
 90
5
 70
0
 10
210.0
 20
0.0
 10
210.0
 20
10.0
 10
207.1132469177246094
 20
5.0
 10
212.8867530822753906
 20
5.0
 10
210.0
 20
10.0
  0
LWPOLYLINE
  5
5E
  8
Border (ISO)
 62
256
370
-1
  6
ByLayer
100
AcDbEntity
100
AcDbPolyline
 90
5
 70
0
 10
210.0
 20
297.0000076293945881
 10
210.0
 20
287.0000076293945881
 10
207.1132469177246094
 20
292.0000076293944744
 10
212.8867530822753906
 20
292.0000076293944744
 10
210.0
 20
287.0000076293945881
  0
LWPOLYLINE
  5
5F
  8
Border (ISO)
 62
256
370
-1
  6
ByLayer
100
AcDbEntity
100
AcDbPolyline
 90
5
 70
0
 10
0.0
 20
148.500003814697294
 10
10.0
 20
148.500003814697294
 10
5.0
 20
151.3867473602294922
 10
5.0
 20
145.6132507324219034
 10
10.0
 20
148.500003814697294
  0
LWPOLYLINE
  5
60
  8
Border (ISO)
 62
256
370
-1
  6
ByLayer
100
AcDbEntity
100
AcDbPolyline
 90
5
 70
0
 10
420.0
 20
148.500003814697294
 10
410.0
 20
148.500003814697294
 10
415.0
 20
151.3867473602294922
 10
415.0
 20
145.6132507324219034
 10
410.0
 20
148.500003814697294
  0
LINE
  5
61
100
AcDbEntity
100
AcDbLine
  8
Border (ISO)
 62
256
370
-1
  6
ByLayer
 10
70.0
 20
10.0
 30
0.0
 11
70.0
 21
6.1000001430511466
 31
0.0
  0
LINE
  5
62
100
AcDbEntity
100
AcDbLine
  8
Border (ISO)
 62
256
370
-1
  6
ByLayer
 10
70.0
 20
287.0000076293945881
 30
0.0
 11
70.0
 21
290.9000015258789062
 31
0.0
  0
LINE
  5
63
100
AcDbEntity
100
AcDbLine
  8
Border (ISO)
 62
256
370
-1
  6
ByLayer
 10
140.0
 20
10.0
 30
0.0
 11
140.0
 21
6.1000001430511466
 31
0.0
  0
LINE
  5
64
100
AcDbEntity
100
AcDbLine
  8
Border (ISO)
 62
256
370
-1
  6
ByLayer
 10
140.0
 20
287.0000076293945881
 30
0.0
 11
140.0
 21
290.9000015258789062
 31
0.0
  0
LINE
  5
65
100
AcDbEntity
100
AcDbLine
  8
Border (ISO)
 62
256
370
-1
  6
ByLayer
 10
280.0
 20
10.0
 30
0.0
 11
280.0
 21
6.1000001430511466
 31
0.0
  0
LINE
  5
66
100
AcDbEntity
100
AcDbLine
  8
Border (ISO)
 62
256
370
-1
  6
ByLayer
 10
280.0
 20
287.0000076293945881
 30
0.0
 11
280.0
 21
290.9000015258789062
 31
0.0
  0
LINE
  5
67
100
AcDbEntity
100
AcDbLine
  8
Border (ISO)
 62
256
370
-1
  6
ByLayer
 10
350.0
 20
10.0
 30
0.0
 11
350.0
 21
6.1000001430511466
 31
0.0
  0
LINE
  5
68
100
AcDbEntity
100
AcDbLine
  8
Border (ISO)
 62
256
370
-1
  6
ByLayer
 10
350.0
 20
287.0000076293945881
 30
0.0
 11
350.0
 21
290.9000015258789062
 31
0.0
  0
MTEXT
  5
69
100
AcDbEntity
100
AcDbMText
  8
Border (ISO)
 62
256
370
-1
  6
ByLayer
 10
384.2103922448458775
 20
287.3999999999999773
 30
0.0
 40
3.4999999403953548
 41
0.0
 71
7
 72
0
  1
1
  7
note text (iso)
 50
0.0
 73
0
 44
1.0
  0
MTEXT
  5
6A
100
AcDbEntity
100
AcDbMText
  8
Border (ISO)
 62
256
370
-1
  6
ByLayer
 10
384.2103922448458775
 20
6.1000000596046444
 30
0.0
 40
3.4999999403953548
 41
0.0
 71
7
 72
0
  1
1
  7
note text (iso)
 50
0.0
 73
0
 44
1.0
  0
MTEXT
  5
6B
100
AcDbEntity
100
AcDbMText
  8
Border (ISO)
 62
256
370
-1
  6
ByLayer
 10
313.9387915541735197
 20
287.3999999999999773
 30
0.0
 40
3.4999999403953548
 41
0.0
 71
7
 72
0
  1
2
  7
note text (iso)
 50
0.0
 73
0
 44
1.0
  0
MTEXT
  5
6C
100
AcDbEntity
100
AcDbMText
  8
Border (ISO)
 62
256
370
-1
  6
ByLayer
 10
313.9387915541735197
 20
6.1000000596046444
 30
0.0
 40
3.4999999403953548
 41
0.0
 71
7
 72
0
  1
2
  7
note text (iso)
 50
0.0
 73
0
 44
1.0
  0
MTEXT
  5
6D
100
AcDbEntity
100
AcDbMText
  8
Border (ISO)
 62
256
370
-1
  6
ByLayer
 10
243.9107914829702111
 20
287.3262560764326849
 30
0.0
 40
3.4999999403953548
 41
0.0
 71
7
 72
0
  1
3
  7
note text (iso)
 50
0.0
 73
0
 44
1.0
  0
MTEXT
  5
6E
100
AcDbEntity
100
AcDbMText
  8
Border (ISO)
 62
256
370
-1
  6
ByLayer
 10
243.9107914829702111
 20
6.0262561360374081
 30
0.0
 40
3.4999999403953548
 41
0.0
 71
7
 72
0
  1
3
  7
note text (iso)
 50
0.0
 73
0
 44
1.0
  0
MTEXT
  5
6F
100
AcDbEntity
100
AcDbMText
  8
Border (ISO)
 62
256
370
-1
  6
ByLayer
 10
173.7791911483143963
 20
287.3999999999999773
 30
0.0
 40
3.4999999403953548
 41
0.0
 71
7
 72
0
  1
4
  7
note text (iso)
 50
0.0
 73
0
 44
1.0
  0
MTEXT
  5
70
100
AcDbEntity
100
AcDbMText
  8
Border (ISO)
 62
256
370
-1
  6
ByLayer
 10
173.7791911483143963
 20
6.1000000596046444
 30
0.0
 40
3.4999999403953548
 41
0.0
 71
7
 72
0
  1
4
  7
note text (iso)
 50
0.0
 73
0
 44
1.0
  0
MTEXT
  5
71
100
AcDbEntity
100
AcDbMText
  8
Border (ISO)
 62
256
370
-1
  6
ByLayer
 10
103.9751916467377981
 20
287.3262560764326849
 30
0.0
 40
3.4999999403953548
 41
0.0
 71
7
 72
0
  1
5
  7
note text (iso)
 50
0.0
 73
0
 44
1.0
  0
MTEXT
  5
72
100
AcDbEntity
100
AcDbMText
  8
Border (ISO)
 62
256
370
-1
  6
ByLayer
 10
103.9751916467377981
 20
6.0262561360374081
 30
0.0
 40
3.4999999403953548
 41
0.0
 71
7
 72
0
  1
5
  7
note text (iso)
 50
0.0
 73
0
 44
1.0
  0
MTEXT
  5
73
100
AcDbEntity
100
AcDbMText
  8
Border (ISO)
 62
256
370
-1
  6
ByLayer
 10
33.8827914117668527
 20
287.3262560764326849
 30
0.0
 40
3.4999999403953548
 41
0.0
 71
7
 72
0
  1
6
  7
note text (iso)
 50
0.0
 73
0
 44
1.0
  0
MTEXT
  5
74
100
AcDbEntity
100
AcDbMText
  8
Border (ISO)
 62
256
370
-1
  6
ByLayer
 10
33.8827914117668527
 20
6.0262561360374081
 30
0.0
 40
3.4999999403953548
 41
0.0
 71
7
 72
0
  1
6
  7
note text (iso)
 50
0.0
 73
0
 44
1.0
  0
LINE
  5
75
100
AcDbEntity
100
AcDbLine
  8
Border (ISO)
 62
256
370
-1
  6
ByLayer
 10
10.0
 20
74.2500019073486328
 30
0.0
 11
6.1000001430511466
 21
74.2500019073486328
 31
0.0
  0
LINE
  5
76
100
AcDbEntity
100
AcDbLine
  8
Border (ISO)
 62
256
370
-1
  6
ByLayer
 10
410.0
 20
74.2500019073486328
 30
0.0
 11
413.8999938964843182
 21
74.2500019073486328
 31
0.0
  0
LINE
  5
77
100
AcDbEntity
100
AcDbLine
  8
Border (ISO)
 62
256
370
-1
  6
ByLayer
 10
10.0
 20
222.749996185302706
 30
0.0
 11
6.1000001430511466
 21
222.749996185302706
 31
0.0
  0
LINE
  5
78
100
AcDbEntity
100
AcDbLine
  8
Border (ISO)
 62
256
370
-1
  6
ByLayer
 10
410.0
 20
222.749996185302706
 30
0.0
 11
413.8999938964843182
 21
222.749996185302706
 31
0.0
  0
MTEXT
  5
79
100
AcDbEntity
100
AcDbMText
  8
Border (ISO)
 62
256
370
-1
  6
ByLayer
 10
6.3612303439333964
 20
35.3750000298023295
 30
0.0
 40
3.4999999403953548
 41
0.0
 71
7
 72
0
  1
A
  7
note text (iso)
 50
0.0
 73
0
 44
1.0
  0
MTEXT
  5
7A
100
AcDbEntity
100
AcDbMText
  8
Border (ISO)
 62
256
370
-1
  6
ByLayer
 10
410.6612302843287239
 20
35.3750000298023295
 30
0.0
 40
3.4999999403953548
 41
0.0
 71
7
 72
0
  1
A
  7
note text (iso)
 50
0.0
 73
0
 44
1.0
  0
MTEXT
  5
7B
100
AcDbEntity
100
AcDbMText
  8
Border (ISO)
 62
256
370
-1
  6
ByLayer
 10
6.7818484683289384
 20
109.625000029802294
 30
0.0
 40
3.4999999403953548
 41
0.0
 71
7
 72
0
  1
B
  7
note text (iso)
 50
0.0
 73
0
 44
1.0
  0
MTEXT
  5
7C
100
AcDbEntity
100
AcDbMText
  8
Border (ISO)
 62
256
370
-1
  6
ByLayer
 10
411.0818484087242268
 20
109.625000029802294
 30
0.0
 40
3.4999999403953548
 41
0.0
 71
7
 72
0
  1
B
  7
note text (iso)
 50
0.0
 73
0
 44
1.0
  0
MTEXT
  5
7D
100
AcDbEntity
100
AcDbMText
  8
Border (ISO)
 62
256
370
-1
  6
ByLayer
 10
6.5589030941883593
 20
183.8126013241707994
 30
0.0
 40
3.4999999403953548
 41
0.0
 71
7
 72
0
  1
C
  7
note text (iso)
 50
0.0
 73
0
 44
1.0
  0
MTEXT
  5
7E
100
AcDbEntity
100
AcDbMText
  8
Border (ISO)
 62
256
370
-1
  6
ByLayer
 10
410.8589030345837045
 20
183.8126013241707994
 30
0.0
 40
3.4999999403953548
 41
0.0
 71
7
 72
0
  1
C
  7
note text (iso)
 50
0.0
 73
0
 44
1.0
  0
MTEXT
  5
7F
100
AcDbEntity
100
AcDbMText
  8
Border (ISO)
 62
256
370
-1
  6
ByLayer
 10
6.5677074570908403
 20
258.1250000298023224
 30
0.0
 40
3.4999999403953548
 41
0.0
 71
7
 72
0
  1
D
  7
note text (iso)
 50
0.0
 73
0
 44
1.0
  0
MTEXT
  5
80
100
AcDbEntity
100
AcDbMText
  8
Border (ISO)
 62
256
370
-1
  6
ByLayer
 10
410.8677073974860718
 20
258.1250000298023224
 30
0.0
 40
3.4999999403953548
 41
0.0
 71
7
 72
0
  1
D
  7
note text (iso)
 50
0.0
 73
0
 44
1.0
  0
ENDBLK
  5
81
100
AcDbEntity
  8
0
100
AcDbBlockEnd
  0
BLOCK
  5
82
100
AcDbEntity
  8
0
100
AcDbBlockBegin
  2
Title Blocks ISO
 70
0
 10
0.0
 20
0.0
 30
0.0
  3
Title Blocks ISO
  1

  0
LINE
  5
83
100
AcDbEntity
100
AcDbLine
  8
Title (ISO)
 62
256
370
-1
  6
ByLayer
 10
100.0713910852681039
 20
99.9999999999991758
 30
0.0
 11
270.0713910852682034
 21
99.9999999999991616
 31
0.0
  0
LINE
  5
84
100
AcDbEntity
100
AcDbLine
  8
Title (ISO)
 62
256
370
-1
  6
ByLayer
 10
270.0713910852682034
 20
99.9999999999991616
 30
0.0
 11
270.0713910852682034
 21
129.9999999999992895
 31
0.0
  0
LINE
  5
85
100
AcDbEntity
100
AcDbLine
  8
Title (ISO)
 62
256
370
-1
  6
ByLayer
 10
270.0713910852682034
 20
129.9999999999992895
 30
0.0
 11
100.0713910852681039
 21
129.9999999999990905
 31
0.0
  0
LINE
  5
86
100
AcDbEntity
100
AcDbLine
  8
Title (ISO)
 62
256
370
-1
  6
ByLayer
 10
100.0713910852681039
 20
129.9999999999990905
 30
0.0
 11
100.0713910852681039
 21
99.9999999999991758
 31
0.0
  0
LINE
  5
87
100
AcDbEntity
100
AcDbLine
  8
Title (ISO)
 62
256
370
-1
  6
ByLayer
 10
100.0713910852681039
 20
120.0
 30
0.0
 11
270.0713910852682034
 21
120.0
 31
0.0
  0
LINE
  5
88
100
AcDbEntity
100
AcDbLine
  8
Title (ISO)
 62
256
370
-1
  6
ByLayer
 10
132.0713910852680897
 20
119.9999999999991047
 30
0.0
 11
132.0713910852680897
 21
129.9999999999990905
 31
0.0
  0
LINE
  5
89
100
AcDbEntity
100
AcDbLine
  8
Title (ISO)
 62
256
370
-1
  6
ByLayer
 10
157.0713910852680897
 20
119.9999999999991047
 30
0.0
 11
157.0713910852680897
 21
129.9999999999990905
 31
0.0
  0
LINE
  5
8A
100
AcDbEntity
100
AcDbLine
  8
Title (ISO)
 62
256
370
-1
  6
ByLayer
 10
175.0713910852680897
 20
120.0
 30
0.0
 11
175.0713910852680897
 21
100.0
 31
0.0
  0
LINE
  5
8B
100
AcDbEntity
100
AcDbLine
  8
Title (ISO)
 62
256
370
-1
  6
ByLayer
 10
197.0713910852682034
 20
119.9999999999992042
 30
0.0
 11
197.0713910852682034
 21
129.9999999999992042
 31
0.0
  0
LINE
  5
8C
100
AcDbEntity
100
AcDbLine
  8
Title (ISO)
 62
256
370
-1
  6
ByLayer
 10
220.0713910852682034
 20
119.9999999999992042
 30
0.0
 11
220.0713910852682034
 21
129.9999999999992042
 31
0.0
  0
LINE
  5
8D
100
AcDbEntity
100
AcDbLine
  8
Title (ISO)
 62
256
370
-1
  6
ByLayer
 10
270.0713910852682034
 20
109.9999999999992042
 30
0.0
 11
175.0713910852680897
 21
110.0
 31
0.0
  0
LINE
  5
8E
100
AcDbEntity
100
AcDbLine
  8
Title (ISO)
 62
256
370
-1
  6
ByLayer
 10
235.0713910852680897
 20
100.0
 30
0.0
 11
235.0713910852680897
 21
110.0
 31
0.0
  0
LINE
  5
8F
100
AcDbEntity
100
AcDbLine
  8
Title (ISO)
 62
256
370
-1
  6
ByLayer
 10
250.0713910852680897
 20
100.0
 30
0.0
 11
250.0713910852680897
 21
110.0
 31
0.0
  0
LINE
  5
90
100
AcDbEntity
100
AcDbLine
  8
Title (ISO)
 62
256
370
-1
  6
ByLayer
 10
250.0713910852682034
 20
119.9999999999993037
 30
0.0
 11
250.0713910852682034
 21
129.9999999999992042
 31
0.0
  0
MTEXT
  5
91
100
AcDbEntity
100
AcDbMText
  8
Title (ISO)
 62
256
370
-1
  6
ByLayer
 10
101.0713910852681039
 20
128.9999999999990052
 30
0.0
 40
2.0000000298023219
 41
100.0
 71
1
 72
2
  1
Designed by
  7
text style41
 50
0.0
 73
0
 44
1.0
  0
MTEXT
  5
92
100
AcDbEntity
100
AcDbMText
  8
Title (ISO)
 62
256
370
-1
  6
ByLayer
 10
133.0713910852680897
 20
128.9999999999990905
 30
0.0
 40
2.0000000298023219
 41
100.0
 71
1
 72
2
  1
Checked by
  7
text style41
 50
0.0
 73
0
 44
1.0
  0
MTEXT
  5
93
100
AcDbEntity
100
AcDbMText
  8
Title (ISO)
 62
256
370
-1
  6
ByLayer
 10
158.0713910852680897
 20
128.9999999999990905
 30
0.0
 40
2.0000000298023219
 41
100.0
 71
1
 72
2
  1
Approved by
  7
text style41
 50
0.0
 73
0
 44
1.0
  0
MTEXT
  5
94
100
AcDbEntity
100
AcDbMText
  8
Title (ISO)
 62
256
370
-1
  6
ByLayer
 10
221.0713910852682034
 20
129.0
 30
0.0
 40
2.0000000298023219
 41
100.0
 71
1
 72
2
  1
Date
  7
text style41
 50
0.0
 73
0
 44
1.0
  0
MTEXT
  5
95
100
AcDbEntity
100
AcDbMText
  8
Title (ISO)
 62
256
370
-1
  6
ByLayer
 10
260.0713910852680897
 20
103.4999999999996021
 30
0.0
 40
3.4999999403953548
 41
100.0
 71
5
 72
2
  1
1 / 1
  7
note text (iso)
 50
0.0
 73
0
 44
1.0
  0
MTEXT
  5
96
100
AcDbEntity
100
AcDbMText
  8
Title (ISO)
 62
256
370
-1
  6
ByLayer
 10
242.5713910852682034
 20
108.9999999999992042
 30
0.0
 40
2.0000000298023219
 41
100.0
 71
2
 72
2
  1
Edition
  7
text style41
 50
0.0
 73
0
 44
1.0
  0
MTEXT
  5
97
100
AcDbEntity
100
AcDbMText
  8
Title (ISO)
 62
256
370
-1
  6
ByLayer
 10
260.0713910852680897
 20
108.9999999999992042
 30
0.0
 40
2.0000000298023219
 41
100.0
 71
2
 72
2
  1
Sheet
  7
text style41
 50
0.0
 73
0
 44
1.0
  0
MTEXT
  5
98
100
AcDbEntity
100
AcDbMText
  8
Title (ISO)
 62
256
370
-1
  6
ByLayer
 10
196.0713910852680897
 20
128.9999999999992042
 30
0.0
 40
2.0000000298023219
 41
100.0
 71
3
 72
2
  1
Date
  7
text style41
 50
0.0
 73
0
 44
1.0
  0
ENDBLK
  5
99
100
AcDbEntity
  8
0
100
AcDbBlockEnd
  0
ENDSEC
  0
SECTION
  2
ENTITIES
  0
MTEXT
  5
9A
100
AcDbEntity
100
AcDbMText
  8
Title (ISO)
 62
256
370
-1
  6
ByLayer
 10
362.5
 20
25.0000000000008491
 30
0.0
 40
3.4999999403953548
 41
100.0
 71
5
 72
2
  1

  7
note text (iso)
 50
0.0
 73
0
 44
1.0
  0
MTEXT
  5
9B
100
AcDbEntity
100
AcDbMText
  8
Title (ISO)
 62
256
370
-1
  6
ByLayer
 10
316.0
 20
15.0000000000008296
 30
0.0
 40
3.4999999403953548
 41
100.0
 71
4
 72
2
  1

  7
note text (iso)
 50
0.0
 73
0
 44
1.0
  0
MTEXT
  5
9C
100
AcDbEntity
100
AcDbMText
  8
Title (ISO)
 62
256
370
-1
  6
ByLayer
 10
277.3431142125641031
 20
19.9581637900179487
 30
0.0
 40
3.4999999403953548
 41
100.0
 71
5
 72
2
  1

  7
note text (iso)
 50
0.0
 73
0
 44
1.0
  0
MTEXT
  5
9D
100
AcDbEntity
100
AcDbMText
  8
Title (ISO)
 62
256
370
-1
  6
ByLayer
 10
273.0
 20
30.9999999999999609
 30
0.0
 40
2.5
 41
100.0
 71
7
 72
2
  1

  7
text style39
 50
0.0
 73
0
 44
1.0
  0
MTEXT
  5
9E
100
AcDbEntity
100
AcDbMText
  8
Title (ISO)
 62
256
370
-1
  6
ByLayer
 10
298.0
 20
31.0000000000008491
 30
0.0
 40
2.5
 41
100.0
 71
7
 72
2
  1

  7
text style39
 50
0.0
 73
0
 44
1.0
  0
MTEXT
  5
9F
100
AcDbEntity
100
AcDbMText
  8
Title (ISO)
 62
256
370
-1
  6
ByLayer
 10
336.0
 20
31.0000000000000107
 30
0.0
 40
2.5
 41
100.0
 71
9
 72
2
  1

  7
text style39
 50
0.0
 73
0
 44
1.0
  0
MTEXT
  5
A0
100
AcDbEntity
100
AcDbMText
  8
Title (ISO)
 62
256
370
-1
  6
ByLayer
 10
382.5
 20
13.5000000000006306
 30
0.0
 40
3.4999999403953548
 41
100.0
 71
5
 72
2
  1

  7
note text (iso)
 50
0.0
 73
0
 44
1.0
  0
LINE
  5
A1
100
AcDbEntity
100
AcDbLine
  8
Visible (ISO)
 62
256
370
-1
  6
ByLayer
 10
53.3113859727173818
 20
260.6620500777780762
 30
0.0
 11
50.19123241705109
 21
260.0721559157487945
 31
0.0
  0
LINE
  5
A2
100
AcDbEntity
100
AcDbLine
  8
Visible (ISO)
 62
256
370
-1
  6
ByLayer
 10
50.19123241705109
 20
260.0721559157487945
 30
0.0
 11
48.1202923093563726
 21
262.4793410776493943
 31
0.0
  0
LINE
  5
A3
100
AcDbEntity
100
AcDbLine
  8
Visible (ISO)
 62
256
370
-1
  6
ByLayer
 10
48.1202923093563726
 20
262.4793410776493943
 30
0.0
 11
49.1695057573279399
 21
265.4764204015795031
 31
0.0
  0
LINE
  5
A4
100
AcDbEntity
100
AcDbLine
  8
Visible (ISO)
 62
256
370
-1
  6
ByLayer
 10
49.1695057573279399
 20
265.4764204015795031
 30
0.0
 11
52.2896593129942318
 21
266.0663145636088984
 31
0.0
  0
LINE
  5
A5
100
AcDbEntity
100
AcDbLine
  8
Visible (ISO)
 62
256
370
-1
  6
ByLayer
 10
52.2896593129942318
 20
266.0663145636088984
 30
0.0
 11
54.3605994206889491
 21
263.659129401708185
 31
0.0
  0
LINE
  5
A6
100
AcDbEntity
100
AcDbLine
  8
Visible (ISO)
 62
256
370
-1
  6
ByLayer
 10
54.3605994206889491
 20
263.659129401708185
 30
0.0
 11
53.3113859727173818
 21
260.6620500777780762
 31
0.0
  0
LINE
  5
A7
100
AcDbEntity
100
AcDbLine
  8
Visible (ISO)
 62
256
370
-1
  6
ByLayer
 10
45.0509723369387629
 20
237.066169789773511
 30
0.0
 11
41.9308187812724782
 21
236.4762756277442008
 31
0.0
  0
LINE
  5
A8
100
AcDbEntity
100
AcDbLine
  8
Visible (ISO)
 62
256
370
-1
  6
ByLayer
 10
41.9308187812724782
 20
236.4762756277442008
 30
0.0
 11
39.8598786735777679
 21
238.8834607896448006
 31
0.0
  0
LINE
  5
A9
100
AcDbEntity
100
AcDbLine
  8
Visible (ISO)
 62
256
370
-1
  6
ByLayer
 10
39.8598786735777679
 20
238.8834607896448006
 30
0.0
 11
40.9090921215493282
 21
241.8805401135749094
 31
0.0
  0
LINE
  5
AA
100
AcDbEntity
100
AcDbLine
  8
Visible (ISO)
 62
256
370
-1
  6
ByLayer
 10
40.9090921215493282
 20
241.8805401135749094
 30
0.0
 11
44.02924567721562
 21
242.4704342756043047
 31
0.0
  0
LINE
  5
AB
100
AcDbEntity
100
AcDbLine
  8
Visible (ISO)
 62
256
370
-1
  6
ByLayer
 10
44.02924567721562
 20
242.4704342756043047
 30
0.0
 11
46.1001857849103516
 21
240.0632491137035913
 31
0.0
  0
LINE
  5
AC
100
AcDbEntity
100
AcDbLine
  8
Visible (ISO)
 62
256
370
-1
  6
ByLayer
 10
46.1001857849103516
 20
240.0632491137035913
 30
0.0
 11
45.0509723369387629
 21
237.066169789773511
 31
0.0
  0
CIRCLE
  5
AD
100
AcDbEntity
100
AcDbCircle
  8
Visible (ISO)
 62
256
370
-1
  6
ByLayer
 10
47.1102390471333621
 20
251.2712950956764928
 30
0.0
 40
27.5
  0
ARC
  5
AE
100
AcDbEntity
  8
Visible (ISO)
 62
256
370
-1
  6
ByLayer
100
AcDbCircle
 10
69.3453299962204142
 20
178.0449374689885929
 30
0.0
 40
0.5000000000000009
100
AcDbArc
 50
210.5446938299641033
 51
331.4015007208519137
  0
ARC
  5
AF
100
AcDbEntity
  8
Visible (ISO)
 62
256
370
-1
  6
ByLayer
100
AcDbCircle
 10
58.5635103899751215
 20
167.263117862743286
 30
0.0
 40
0.5000000000000006
100
AcDbArc
 50
298.5984992791476884
 51
59.4553061700352927
  0
ARC
  5
B0
100
AcDbEntity
  8
Visible (ISO)
 62
256
370
-1
  6
ByLayer
100
AcDbCircle
 10
56.2765639222026834
 20
163.3875694043248075
 30
0.0
 40
5.0000000000007558
100
AcDbArc
 50
59.4553061700361454
 51
71.2136549223961737
  0
ARC
  5
B1
100
AcDbEntity
  8
Visible (ISO)
 62
256
370
-1
  6
ByLayer
100
AcDbCircle
 10
59.4969646967329595
 20
172.8548297710526924
 30
0.0
 40
4.9999999999998641
100
AcDbArc
 50
227.8519437006683859
 51
251.2136549223972963
  0
ARC
  5
B2
100
AcDbEntity
  8
Visible (ISO)
 62
256
370
-1
  6
ByLayer
100
AcDbCircle
 10
63.7536180879110077
 20
177.1114831622307975
 30
0.0
 40
4.9999999999998499
100
AcDbArc
 50
18.7863450776025793
 51
42.1480562993316212
  0
ARC
  5
B3
100
AcDbEntity
  8
Visible (ISO)
 62
256
370
-1
  6
ByLayer
100
AcDbCircle
 10
73.2208784546378837
 20
180.3318839367605051
 30
0.0
 40
4.9999999999996216
100
AcDbArc
 50
198.78634507760259
 51
210.5446938299650128
  0
ARC
  5
B4
100
AcDbEntity
  8
Visible (ISO)
 62
256
370
-1
  6
ByLayer
100
AcDbCircle
 10
45.6394511378523688
 20
190.9689967211114094
 30
0.0
 40
27.5
100
AcDbArc
 50
331.4015007208528232
 51
298.59849927914712
  0
ARC
  5
B5
100
AcDbEntity
  8
Visible (ISO)
 62
256
370
-1
  6
ByLayer
100
AcDbCircle
 10
54.1285750297978012
 20
166.9235236430619125
 30
0.0
 40
2.9999999999999671
100
AcDbArc
 50
47.8519437006685706
 51
109.4453028714622036
  0
ARC
  5
B6
100
AcDbEntity
  8
Visible (ISO)
 62
256
370
-1
  6
ByLayer
100
AcDbCircle
 10
69.6849242159018161
 20
182.4798728291659984
 30
0.0
 40
2.9999999999999849
100
AcDbArc
 50
160.5546971285380096
 51
222.1480562993313015
  0
ARC
  5
B7
100
AcDbEntity
  8
Visible (ISO)
 62
256
370
-1
  6
ByLayer
100
AcDbCircle
 10
45.6394511378523973
 20
190.9689967211112105
 30
0.0
 40
22.4999999999998685
100
AcDbArc
 50
276.3793702084428219
 51
289.4453028714614788
  0
ARC
  5
B8
100
AcDbEntity
  8
Visible (ISO)
 62
256
370
-1
  6
ByLayer
100
AcDbCircle
 10
45.6394511378523617
 20
190.9689967211112958
 30
0.0
 40
22.4999999999999787
100
AcDbArc
 50
232.860036362423898
 51
263.6206297915571781
  0
ARC
  5
B9
100
AcDbEntity
  8
Visible (ISO)
 62
256
370
-1
  6
ByLayer
100
AcDbCircle
 10
45.6394511378523902
 20
190.9689967211114094
 30
0.0
 40
22.5000000000000213
100
AcDbArc
 50
186.3793702084427935
 51
217.5355250408917129
  0
ARC
  5
BA
100
AcDbEntity
  8
Visible (ISO)
 62
256
370
-1
  6
ByLayer
100
AcDbCircle
 10
45.6394511378520775
 20
190.9689967211114094
 30
0.0
 40
22.4999999999996909
100
AcDbArc
 50
166.4579794495977012
 51
173.6206297915572065
  0
ARC
  5
BB
100
AcDbEntity
  8
Visible (ISO)
 62
256
370
-1
  6
ByLayer
100
AcDbCircle
 10
45.6394511378523617
 20
190.9689967211114094
 30
0.0
 40
22.4999999999999787
100
AcDbArc
 50
96.3793702084427224
 51
103.5420205504021993
  0
ARC
  5
BC
100
AcDbEntity
  8
Visible (ISO)
 62
256
370
-1
  6
ByLayer
100
AcDbCircle
 10
45.6394511378523617
 20
190.9689967211112958
 30
0.0
 40
22.5000000000000284
100
AcDbArc
 50
52.8600363624238767
 51
83.6206297915571639
  0
ARC
  5
BD
100
AcDbEntity
  8
Visible (ISO)
 62
256
370
-1
  6
ByLayer
100
AcDbCircle
 10
45.6394511378522978
 20
190.9689967211112958
 30
0.0
 40
22.5000000000000817
100
AcDbArc
 50
6.379370208442765
 51
37.5355250408916916
  0
ARC
  5
BE
100
AcDbEntity
  8
Visible (ISO)
 62
256
370
-1
  6
ByLayer
100
AcDbCircle
 10
45.6394511378520633
 20
190.9689967211114094
 30
0.0
 40
22.5000000000003197
100
AcDbArc
 50
340.554697128538578
 51
353.6206297915571781
  0
LINE
  5
BF
100
AcDbEntity
100
AcDbLine
  8
Visible (ISO)
 62
256
370
-1
  6
ByLayer
 10
48.1394511378523688
 20
168.6083169461134901
 30
0.0
 11
48.1394511378523688
 21
173.4689967211114094
 31
0.0
  0
ARC
  5
C0
100
AcDbEntity
  8
Visible (ISO)
 62
256
370
-1
  6
ByLayer
100
AcDbCircle
 10
45.6394511378523688
 20
173.4689967211114094
 30
0.0
 40
2.5
100
AcDbArc
 50
0.0
 51
180.0
  0
LINE
  5
C1
100
AcDbEntity
100
AcDbLine
  8
Visible (ISO)
 62
256
370
-1
  6
ByLayer
 10
43.1394511378523688
 20
173.4689967211114094
 30
0.0
 11
43.1394511378523688
 21
168.6083169461134901
 31
0.0
  0
LINE
  5
C2
100
AcDbEntity
100
AcDbLine
  8
Visible (ISO)
 62
256
370
-1
  6
ByLayer
 10
43.1394511378523831
 20
213.3296764961093004
 30
0.0
 11
43.1394511378523688
 21
208.4689967211114094
 31
0.0
  0
ARC
  5
C3
100
AcDbEntity
  8
Visible (ISO)
 62
256
370
-1
  6
ByLayer
100
AcDbCircle
 10
45.6394511378523688
 20
208.4689967211114094
 30
0.0
 40
2.5
100
AcDbArc
 50
180.0
 51
0.0
  0
LINE
  5
C4
100
AcDbEntity
100
AcDbLine
  8
Visible (ISO)
 62
256
370
-1
  6
ByLayer
 10
48.1394511378523688
 20
208.4689967211114094
 30
0.0
 11
48.1394511378523688
 21
213.3296764961093004
 31
0.0
  0
LINE
  5
C5
100
AcDbEntity
100
AcDbLine
  8
Visible (ISO)
 62
256
370
-1
  6
ByLayer
 10
68.0001309128502669
 20
193.4689967211112958
 30
0.0
 11
63.1394511378523688
 21
193.4689967211112958
 31
0.0
  0
ARC
  5
C6
100
AcDbEntity
  8
Visible (ISO)
 62
256
370
-1
  6
ByLayer
100
AcDbCircle
 10
63.1394511378523688
 20
190.9689967211114094
 30
0.0
 40
2.5
100
AcDbArc
 50
90.0
 51
270.0
  0
LINE
  5
C7
100
AcDbEntity
100
AcDbLine
  8
Visible (ISO)
 62
256
370
-1
  6
ByLayer
 10
63.1394511378523688
 20
188.4689967211114094
 30
0.0
 11
68.0001309128502669
 21
188.4689967211114094
 31
0.0
  0
LINE
  5
C8
100
AcDbEntity
100
AcDbLine
  8
Visible (ISO)
 62
256
370
-1
  6
ByLayer
 10
32.0547576860805918
 20
173.0328292424835013
 30
0.0
 11
38.9598102909181208
 21
179.9857186059051912
 31
0.0
  0
ARC
  5
C9
100
AcDbEntity
  8
Visible (ISO)
 62
256
370
-1
  6
ByLayer
100
AcDbCircle
 10
36.8311799629433878
 20
182.099703687883391
 30
0.0
 40
3.0
100
AcDbArc
 50
315.1977807016573934
 51
135.1977807016573934
  0
LINE
  5
CA
100
AcDbEntity
100
AcDbLine
  8
Visible (ISO)
 62
256
370
-1
  6
ByLayer
 10
34.702549634968662
 20
184.2136887698615055
 30
0.0
 11
27.7974970301311295
 21
177.2607994064397872
 31
0.0
  0
LINE
  5
CB
100
AcDbEntity
100
AcDbLine
  8
Visible (ISO)
 62
256
370
-1
  6
ByLayer
 10
59.2241445896241601
 20
208.9051641997392892
 30
0.0
 11
52.3190919847866382
 21
201.9522748363175992
 31
0.0
  0
ARC
  5
CC
100
AcDbEntity
  8
Visible (ISO)
 62
256
370
-1
  6
ByLayer
100
AcDbCircle
 10
54.447722312761357
 20
199.8382897543393995
 30
0.0
 40
3.0000000000000009
100
AcDbArc
 50
135.1977807016575923
 51
315.1977807016576207
  0
LINE
  5
CD
100
AcDbEntity
100
AcDbLine
  8
Visible (ISO)
 62
256
370
-1
  6
ByLayer
 10
56.5763526407360899
 20
197.7243046723611997
 30
0.0
 11
63.4814052455736118
 21
204.6771940357830033
 31
0.0
  0
CIRCLE
  5
CE
100
AcDbEntity
100
AcDbCircle
  8
Visible (ISO)
 62
256
370
-1
  6
ByLayer
 10
54.447722312761357
 20
199.8382897543393995
 30
0.0
 40
1.5
  0
CIRCLE
  5
CF
100
AcDbEntity
100
AcDbCircle
  8
Visible (ISO)
 62
256
370
-1
  6
ByLayer
 10
36.8311799629433878
 20
182.0997036878833057
 30
0.0
 40
1.5
  0
LINE
  5
D0
100
AcDbEntity
100
AcDbLine
  8
Visible (ISO)
 62
256
370
-1
  6
ByLayer
 10
23.2787713628544815
 20
188.4689967211114094
 30
0.0
 11
28.1394511378523688
 21
188.4689967211114094
 31
0.0
  0
ARC
  5
D1
100
AcDbEntity
  8
Visible (ISO)
 62
256
370
-1
  6
ByLayer
100
AcDbCircle
 10
28.1394511378523688
 20
190.9689967211114094
 30
0.0
 40
2.5
100
AcDbArc
 50
270.0
 51
90.0
  0
LINE
  5
D2
100
AcDbEntity
100
AcDbLine
  8
Visible (ISO)
 62
256
370
-1
  6
ByLayer
 10
28.1394511378523688
 20
193.4689967211112958
 30
0.0
 11
23.2787713628544815
 21
193.4689967211112958
 31
0.0
  0
ARC
  5
D3
100
AcDbEntity
  8
Visible (ISO)
 62
256
370
-1
  6
ByLayer
100
AcDbCircle
 10
20.8483906427460788
 20
196.9400367919851078
 30
0.0
 40
2.9999999999999938
100
AcDbArc
 50
346.4579794495977012
 51
45.0
  0
ARC
  5
D4
100
AcDbEntity
  8
Visible (ISO)
 62
256
370
-1
  6
ByLayer
100
AcDbCircle
 10
39.6684110669786278
 20
215.7600572162176888
 30
0.0
 40
2.9999999999999889
100
AcDbArc
 50
224.9999999999992895
 51
283.5420205504021851
  0
LINE
  5
D5
100
AcDbEntity
100
AcDbLine
  8
Visible (ISO)
 62
256
370
-1
  6
ByLayer
 10
22.9697109863057314
 20
199.0613571355447959
 30
0.0
 11
22.4408586925984288
 21
199.5902094292520985
 31
0.0
  0
LINE
  5
D6
100
AcDbEntity
100
AcDbLine
  8
Visible (ISO)
 62
256
370
-1
  6
ByLayer
 10
22.4408586925984288
 20
199.5902094292520985
 30
0.0
 11
37.0182384297116869
 21
214.1675891663653033
 31
0.0
  0
LINE
  5
D7
100
AcDbEntity
100
AcDbLine
  8
Visible (ISO)
 62
256
370
-1
  6
ByLayer
 10
37.0182384297116869
 20
214.1675891663653033
 30
0.0
 11
37.5470907234189823
 21
213.6387368726580007
 31
0.0
  0
LINE
  5
D8
100
AcDbEntity
100
AcDbLine
  8
Visible (ISO)
 62
256
370
-1
  6
ByLayer
 10
49.0071481151726118
 20
154.407665866299709
 30
0.0
 11
49.0071481151726118
 21
149.370895121604093
 31
0.0
  0
ARC
  5
D9
100
AcDbEntity
  8
Visible (ISO)
 62
256
370
-1
  6
ByLayer
100
AcDbCircle
 10
46.0071481151726331
 20
127.0717920006264023
 30
0.0
 40
22.5
100
AcDbArc
 50
97.6622556607661494
 51
82.3377443392340922
  0
LINE
  5
DA
100
AcDbEntity
100
AcDbLine
  8
Visible (ISO)
 62
256
370
-1
  6
ByLayer
 10
43.0071481151725905
 20
149.370895121604093
 30
0.0
 11
43.0071481151725905
 21
154.407665866299709
 31
0.0
  0
ARC
  5
DB
100
AcDbEntity
  8
Visible (ISO)
 62
256
370
-1
  6
ByLayer
100
AcDbCircle
 10
46.0071481151725621
 20
127.0717920006264023
 30
0.0
 40
27.5
100
AcDbArc
 50
96.2629131261392956
 51
83.737086873860477
  0
LINE
  5
DC
100
AcDbEntity
100
AcDbLine
  8
Visible (ISO)
 62
256
370
-1
  6
ByLayer
 10
358.9130165589016883
 20
213.9951939486475112
 30
0.0
 11
358.9130165589016883
 21
148.9951939486475112
 31
0.0
  0
LINE
  5
DD
100
AcDbEntity
100
AcDbLine
  8
Visible (ISO)
 62
256
370
-1
  6
ByLayer
 10
353.913016558901802
 20
148.9951939486475112
 30
0.0
 11
353.913016558901802
 21
213.9951939486475965
 31
0.0
  0
LINE
  5
DE
100
AcDbEntity
100
AcDbLine
  8
Visible (ISO)
 62
256
370
-1
  6
ByLayer
 10
353.913016558901802
 20
213.9951939486475965
 30
0.0
 11
358.9130165589016883
 21
213.9951939486475112
 31
0.0
  0
LINE
  5
DF
100
AcDbEntity
100
AcDbLine
  8
Visible (ISO)
 62
256
370
-1
  6
ByLayer
 10
331.413016558901802
 20
148.9951939486475112
 30
0.0
 11
353.913016558901802
 21
148.9951939486475112
 31
0.0
  0
LINE
  5
E0
100
AcDbEntity
100
AcDbLine
  8
Visible (ISO)
 62
256
370
-1
  6
ByLayer
 10
358.9130165589016883
 20
148.9951939486475112
 30
0.0
 11
381.4017856850056205
 21
148.9951939486475112
 31
0.0
  0
SPLINE
  5
E1
  8
Visible (ISO)
 62
256
370
-1
  6
ByLayer
100
AcDbEntity
100
AcDbSpline
 70
8
 71
2
 72
6
 73
3
 74
0
 40
0.0
 40
0.0
 40
0.0
 40
1.0
 40
1.0
 40
1.0
 10
343.3182930696914923
 20
156.7144111810468985
 30
0.0
 10
340.7887428912375185
 20
153.6683979341979125
 30
0.0
 10
334.4130165589011767
 20
152.4458353559807904
 30
0.0
  0
LINE
  5
E2
100
AcDbEntity
100
AcDbLine
  8
Visible (ISO)
 62
256
370
-1
  6
ByLayer
 10
331.413016558901802
 20
151.9951939486475112
 30
0.0
 11
331.413016558901802
 21
148.9951939486475112
 31
0.0
  0
LINE
  5
E3
100
AcDbEntity
100
AcDbLine
  8
Visible (ISO)
 62
256
370
-1
  6
ByLayer
 10
378.4017856850056205
 20
152.4451939486474998
 30
0.0
 11
378.7680808969515169
 21
152.4451939486474998
 31
0.0
  0
LINE
  5
E4
100
AcDbEntity
100
AcDbLine
  8
Visible (ISO)
 62
256
370
-1
  6
ByLayer
 10
378.907401121953626
 20
152.4451939486474998
 30
0.0
 11
378.7680808969515169
 21
152.4451939486474998
 31
0.0
  0
LINE
  5
E5
100
AcDbEntity
100
AcDbLine
  8
Visible (ISO)
 62
256
370
-1
  6
ByLayer
 10
378.7680808969515169
 20
151.9951939486475112
 30
0.0
 11
378.7680808969515169
 21
152.4451939486474998
 31
0.0
  0
LINE
  5
E6
100
AcDbEntity
100
AcDbLine
  8
Visible (ISO)
 62
256
370
-1
  6
ByLayer
 10
334.0467213469556782
 20
151.9951939486475112
 30
0.0
 11
334.0467213469556782
 21
152.4451939486474998
 31
0.0
  0
LINE
  5
E7
100
AcDbEntity
100
AcDbLine
  8
Visible (ISO)
 62
256
370
-1
  6
ByLayer
 10
334.0467213469556782
 20
152.4451939486474998
 30
0.0
 11
333.9074011219536828
 21
152.4451939486474998
 31
0.0
  0
LINE
  5
E8
100
AcDbEntity
100
AcDbLine
  8
Visible (ISO)
 62
256
370
-1
  6
ByLayer
 10
334.0467213469556782
 20
152.4451939486474998
 30
0.0
 11
334.4130165589016883
 21
152.4451939486474998
 31
0.0
  0
LINE
  5
E9
100
AcDbEntity
100
AcDbLine
  8
Visible (ISO)
 62
256
370
-1
  6
ByLayer
 10
378.9074011219536828
 20
151.9951939486475112
 30
0.0
 11
378.9074011219536828
 21
152.4451939486474998
 31
0.0
  0
LINE
  5
EA
100
AcDbEntity
100
AcDbLine
  8
Visible (ISO)
 62
256
370
-1
  6
ByLayer
 10
333.9074011219536828
 20
151.9951939486475112
 30
0.0
 11
333.9074011219536828
 21
152.4451939486474998
 31
0.0
  0
LINE
  5
EB
100
AcDbEntity
100
AcDbLine
  8
Visible (ISO)
 62
256
370
-1
  6
ByLayer
 10
334.4130165589016883
 20
152.4458353559809041
 30
0.0
 11
334.4130165589016883
 21
152.4451939486474998
 31
0.0
  0
LINE
  5
EC
100
AcDbEntity
100
AcDbLine
  8
Visible (ISO)
 62
256
370
-1
  6
ByLayer
 10
381.4017856850056205
 20
151.9951939486475112
 30
0.0
 11
378.7680808969515169
 21
151.9951939486475112
 31
0.0
  0
LINE
  5
ED
100
AcDbEntity
100
AcDbLine
  8
Visible (ISO)
 62
256
370
-1
  6
ByLayer
 10
334.0467213469556782
 20
151.9951939486475112
 30
0.0
 11
331.413016558901802
 21
151.9951939486475112
 31
0.0
  0
LINE
  5
EE
100
AcDbEntity
100
AcDbLine
  8
Visible (ISO)
 62
256
370
-1
  6
ByLayer
 10
378.4017856850056205
 20
152.4451939486474998
 30
0.0
 11
378.4017856850056205
 21
152.4458353559809041
 31
0.0
  0
SPLINE
  5
EF
  8
Visible (ISO)
 62
256
370
-1
  6
ByLayer
100
AcDbEntity
100
AcDbSpline
 70
8
 71
2
 72
6
 73
3
 74
0
 40
0.0
 40
0.0
 40
0.0
 40
1.0
 40
1.0
 40
1.0
 10
368.8172733854332819
 20
157.6810158018940911
 30
0.0
 10
371.0583998682059814
 20
153.8539492286683981
 30
0.0
 10
378.4017856850117028
 20
152.4458353559797104
 30
0.0
  0
LINE
  5
F0
100
AcDbEntity
100
AcDbLine
  8
Visible (ISO)
 62
256
370
-1
  6
ByLayer
 10
381.4017856850056205
 20
151.9951939486475112
 30
0.0
 11
381.4017856850056205
 21
148.9951939486475112
 31
0.0
  0
SPLINE
  5
F1
  8
Visible (ISO)
 62
256
370
-1
  6
ByLayer
100
AcDbEntity
100
AcDbSpline
 70
8
 71
3
 72
12
 73
8
 74
0
 40
0.0
 40
0.0
 40
0.0
 40
0.0
 40
0.2
 40
0.4
 40
0.6000000000000001
 40
0.8
 40
1.0
 40
1.0
 40
1.0
 40
1.0
 10
367.8723694652483118
 20
160.0265623358147025
 30
0.0
 10
367.8273454460049265
 20
159.7700541688294038
 30
0.0
 10
367.832853629831277
 20
159.5072041675846037
 30
0.0
 10
367.9234009117632809
 20
159.0938757129376029
 30
0.0
 10
367.9774818262321219
 20
158.9397847910977077
 30
0.0
 10
368.1217714205573088
 20
158.6481232138106066
 30
0.0
 10
368.2114424738949197
 20
158.5116392964555985
 30
0.0
 10
368.3166499129353042
 20
158.3875309347525899
 30
0.0
  0
SPLINE
  5
F2
  8
Visible (ISO)
 62
256
370
-1
  6
ByLayer
100
AcDbEntity
100
AcDbSpline
 70
8
 71
3
 72
10
 73
6
 74
0
 40
0.0
 40
0.0
 40
0.0
 40
0.0
 40
0.3333333333333333
 40
0.6666666666666666
 40
1.0
 40
1.0
 40
1.0
 40
1.0
 10
368.3166499129353042
 20
158.3875309347525899
 30
0.0
 10
368.3169672866266069
 20
158.3871565436521962
 30
0.0
 10
368.4105467924823074
 20
158.2767321795568023
 30
0.0
 10
368.587807640983101
 20
158.0481409956597076
 30
0.0
 10
368.7443783201263727
 20
157.805495285731098
 30
0.0
 10
368.8172733854332819
 20
157.6810158018940058
 30
0.0
  0
SPLINE
  5
F3
  8
Visible (ISO)
 62
256
370
-1
  6
ByLayer
100
AcDbEntity
100
AcDbSpline
 70
8
 71
3
 72
228
 73
224
 74
0
 40
0.0
 40
0.0
 40
0.0
 40
0.0
 40
0.0045248868778281
 40
0.0090497737556561
 40
0.0135746606334842
 40
0.0180995475113122
 40
0.0226244343891403
 40
0.0271493212669683
 40
0.0316742081447964
 40
0.0361990950226244
 40
0.0407239819004525
 40
0.0452488687782805
 40
0.0497737556561086
 40
0.0542986425339367
 40
0.0588235294117647
 40
0.0633484162895928
 40
0.0678733031674208
 40
0.0723981900452489
 40
0.0769230769230769
 40
0.081447963800905
 40
0.085972850678733
 40
0.0904977375565611
 40
0.0950226244343891
 40
0.0995475113122172
 40
0.1040723981900453
 40
0.1085972850678733
 40
0.1131221719457014
 40
0.1176470588235294
 40
0.1221719457013575
 40
0.1266968325791855
 40
0.1312217194570136
 40
0.1357466063348416
 40
0.1402714932126697
 40
0.1447963800904978
 40
0.1493212669683258
 40
0.1538461538461539
 40
0.1583710407239819
 40
0.16289592760181
 40
0.167420814479638
 40
0.1719457013574661
 40
0.1764705882352941
 40
0.1809954751131222
 40
0.1855203619909502
 40
0.1900452488687783
 40
0.1945701357466064
 40
0.1990950226244344
 40
0.2036199095022625
 40
0.2081447963800905
 40
0.2126696832579186
 40
0.2171945701357466
 40
0.2217194570135747
 40
0.2262443438914027
 40
0.2307692307692308
 40
0.2352941176470588
 40
0.2398190045248869
 40
0.244343891402715
 40
0.248868778280543
 40
0.2533936651583711
 40
0.2579185520361991
 40
0.2624434389140272
 40
0.2669683257918553
 40
0.2714932126696833
 40
0.2760180995475113
 40
0.2805429864253394
 40
0.2850678733031675
 40
0.2895927601809955
 40
0.2941176470588235
 40
0.2986425339366516
 40
0.3031674208144797
 40
0.3076923076923077
 40
0.3122171945701357
 40
0.3167420814479638
 40
0.3212669683257919
 40
0.3257918552036199
 40
0.330316742081448
 40
0.334841628959276
 40
0.3393665158371041
 40
0.3438914027149322
 40
0.3484162895927602
 40
0.3529411764705883
 40
0.3574660633484163
 40
0.3619909502262444
 40
0.3665158371040724
 40
0.3710407239819005
 40
0.3755656108597286
 40
0.3800904977375566
 40
0.3846153846153846
 40
0.3891402714932127
 40
0.3936651583710408
 40
0.3981900452488688
 40
0.4027149321266968
 40
0.4072398190045249
 40
0.411764705882353
 40
0.416289592760181
 40
0.4208144796380091
 40
0.4253393665158371
 40
0.4298642533936652
 40
0.4343891402714932
 40
0.4389140271493213
 40
0.4434389140271494
 40
0.4479638009049774
 40
0.4524886877828055
 40
0.4570135746606335
 40
0.4615384615384616
 40
0.4660633484162897
 40
0.4705882352941177
 40
0.4751131221719457
 40
0.4796380090497738
 40
0.4841628959276019
 40
0.4886877828054299
 40
0.4932126696832579
 40
0.497737556561086
 40
0.502262443438914
 40
0.5067873303167422
 40
0.5113122171945702
 40
0.5158371040723982
 40
0.5203619909502263
 40
0.5248868778280543
 40
0.5294117647058824
 40
0.5339366515837105
 40
0.5384615384615385
 40
0.5429864253393666
 40
0.5475113122171946
 40
0.5520361990950227
 40
0.5565610859728507
 40
0.5610859728506787
 40
0.5656108597285069
 40
0.5701357466063349
 40
0.574660633484163
 40
0.579185520361991
 40
0.583710407239819
 40
0.5882352941176471
 40
0.5927601809954751
 40
0.5972850678733033
 40
0.6018099547511313
 40
0.6063348416289593
 40
0.6108597285067874
 40
0.6153846153846154
 40
0.6199095022624435
 40
0.6244343891402715
 40
0.6289592760180996
 40
0.6334841628959277
 40
0.6380090497737557
 40
0.6425339366515838
 40
0.6470588235294118
 40
0.6515837104072398
 40
0.656108597285068
 40
0.660633484162896
 40
0.6651583710407241
 40
0.6696832579185521
 40
0.6742081447963801
 40
0.6787330316742082
 40
0.6832579185520362
 40
0.6877828054298644
 40
0.6923076923076924
 40
0.6968325791855204
 40
0.7013574660633485
 40
0.7058823529411765
 40
0.7104072398190046
 40
0.7149321266968326
 40
0.7194570135746607
 40
0.7239819004524888
 40
0.7285067873303168
 40
0.7330316742081449
 40
0.7375565610859729
 40
0.7420814479638009
 40
0.746606334841629
 40
0.7511312217194571
 40
0.7556561085972852
 40
0.7601809954751132
 40
0.7647058823529412
 40
0.7692307692307693
 40
0.7737556561085973
 40
0.7782805429864255
 40
0.7828054298642535
 40
0.7873303167420815
 40
0.7918552036199096
 40
0.7963800904977376
 40
0.8009049773755657
 40
0.8054298642533937
 40
0.8099547511312218
 40
0.8144796380090499
 40
0.8190045248868779
 40
0.823529411764706
 40
0.828054298642534
 40
0.832579185520362
 40
0.8371040723981901
 40
0.8416289592760182
 40
0.8461538461538463
 40
0.8506787330316743
 40
0.8552036199095023
 40
0.8597285067873304
 40
0.8642533936651584
 40
0.8687782805429864
 40
0.8733031674208146
 40
0.8778280542986426
 40
0.8823529411764707
 40
0.8868778280542987
 40
0.8914027149321267
 40
0.8959276018099548
 40
0.9004524886877829
 40
0.904977375565611
 40
0.909502262443439
 40
0.9140271493212671
 40
0.9185520361990951
 40
0.9230769230769231
 40
0.9276018099547512
 40
0.9321266968325793
 40
0.9366515837104074
 40
0.9411764705882354
 40
0.9457013574660634
 40
0.9502262443438915
 40
0.9547511312217195
 40
0.9592760180995475
 40
0.9638009049773757
 40
0.9683257918552037
 40
0.9728506787330318
 40
0.9773755656108598
 40
0.9819004524886878
 40
0.9864253393665159
 40
0.990950226244344
 40
0.9954751131221721
 40
1.0
 40
1.0
 40
1.0
 40
1.0
 10
343.3182930696976882
 20
156.7144111810542881
 30
0.0
 10
343.7342465246790084
 20
157.2152906436326987
 30
0.0
 10
344.048390340973981
 20
157.7926263847357973
 30
0.0
 10
344.3454099584192249
 20
158.7406618131628875
 30
0.0
 10
344.4139446298377152
 20
159.077054477977498
 30
0.0
 10
344.4811885603681958
 20
159.7585459786637045
 30
0.0
 10
344.4797203224557052
 20
160.1018459501244138
 30
0.0
 10
344.4431850126089216
 20
160.4422916492596016
 30
0.0
 10
367.8723694652483118
 20
160.0265623358147025
 30
0.0
 10
368.2846931084166044
 20
162.3756280942976957
 30
0.0
 10
369.467726992577127
 20
166.4792137489158108
 30
0.0
 10
373.2928497884528269
 20
165.573968796403193
 30
0.0
 10
377.5856001115932941
 20
163.4275935269301954
 30
0.0
 10
382.3175447382024004
 20
163.4275935269301954
 30
0.0
 10
384.5958884473104717
 20
165.7059373505753115
 30
0.0
 10
384.5958884473104717
 20
171.6646827354933009
 30
0.0
 10
387.4000037815973201
 20
174.1182837763419116
 30
0.0
 10
391.4309195746345722
 20
177.0976564688008921
 30
0.0
 10
398.2457586405058123
 20
177.0976564688008921
 30
0.0
 10
400.3690372026738942
 20
184.9842312429570939
 30
0.0
 10
393.5340060753497937
 20
186.5615461977882887
 30
0.0
 10
393.5340060753497937
 20
191.1182338450784925
 30
0.0
 10
390.2041191158841116
 20
191.1182338450784925
 30
0.0
 10
388.1010326151690037
 20
192.3450343655028121
 30
0.0
 10
389.6783474907052778
 20
194.4481209719444053
 30
0.0
 10
392.482462824992183
 20
196.9017220127931012
 30
0.0
 10
395.4618353676718812
 20
198.6542941848277053
 30
0.0
 10
392.6577200333850897
 20
203.5614962665248981
 30
0.0
 10
394.4102921173143841
 20
206.3656117417804126
 30
0.0
 10
394.4102921173143841
 20
211.0975566062741109
 30
0.0
 10
388.9773186571335941
 20
214.4274437331401089
 30
0.0
 10
385.6474316976680257
 20
217.7573308600059931
 30
0.0
 10
385.6474316976680257
 20
222.8397901589067089
 30
0.0
 10
386.6989749480255796
 20
224.4171051137379038
 30
0.0
 10
385.2969172808822123
 20
228.7985355438246131
 30
0.0
 10
381.967030321416587
 20
234.2315092771322043
 30
0.0
 10
383.5443451969529178
 20
236.3345958835739111
 30
0.0
 10
380.5649726542731059
 20
240.3655118792536882
 30
0.0
 10
378.2866289451649777
 20
239.1387113588293971
 30
0.0
 10
374.4309703605205755
 20
240.5407690964572112
 30
0.0
 10
376.00828523605702
 20
242.2933412684919006
 30
0.0
 10
378.6371433619509048
 20
245.0974567437473013
 30
0.0
 10
379.6886866123085156
 20
247.2005433501890082
 30
0.0
 10
377.7608573199862008
 20
250.705687694258387
 30
0.0
 10
374.2557131521277256
 20
249.4788871738340958
 30
0.0
 10
373.2041699017701717
 20
253.8603176039208904
 30
0.0
 10
374.7814847773065026
 20
256.8396902963797857
 30
0.0
 10
373.2041699017701717
 20
261.2211207264666086
 30
0.0
 10
368.1217108583751951
 20
259.2932913372284247
 30
0.0
 10
364.4413094821238133
 20
255.6128897759556082
 30
0.0
 10
360.4103936890863906
 20
255.6128897759556082
 30
0.0
 10
359.3588504387287799
 20
258.7675196856180264
 30
0.0
 10
360.760908105872204
 20
263.1489501157047926
 30
0.0
 10
362.8639946065874256
 20
266.8293516769776943
 30
0.0
 10
362.8639946065874256
 20
272.715144367448886
 30
0.0
 10
351.8227904778329957
 20
279.2726140984241283
 30
0.0
 10
347.4413602680098165
 20
274.1901547995233841
 30
0.0
 10
347.4413602680098165
 20
268.7571810662158214
 30
0.0
 10
351.1217616442613121
 20
260.8706062920596764
 30
0.0
 10
348.8434179351531839
 20
257.1902047307867747
 30
0.0
 10
345.1630165589016883
 20
263.4994645501117247
 30
0.0
 10
340.6063291406856024
 20
263.4994645501117247
 30
0.0
 10
340.6063291406856024
 20
257.715976382397173
 30
0.0
 10
342.5341584330078035
 20
254.2108320383277942
 30
0.0
 10
341.1321007658643794
 20
252.8087743007000938
 30
0.0
 10
338.3279854315774742
 20
251.5819737802758027
 30
0.0
 10
336.2248989308624232
 20
247.5510577845959119
 30
0.0
 10
339.5547858903279916
 20
245.2727139609507958
 30
0.0
 10
338.1527282231846243
 20
241.9428268340849115
 30
0.0
 10
334.9980984721119057
 20
239.1387113588293971
 30
0.0
 10
333.0702691797898183
 20
237.5613964039982022
 30
0.0
 10
330.7919254706816901
 20
239.3139685760328916
 30
0.0
 10
328.8640961783593752
 20
239.3139685760328916
 30
0.0
 10
328.8640961783593752
 20
238.0871680556086005
 30
0.0
 10
328.8640961783593752
 20
229.4995644126385059
 30
0.0
 10
325.1836948021078797
 20
227.922249457807311
 30
0.0
 10
323.9568943433574191
 20
225.1181339825517114
 30
0.0
 10
325.008437593714973
 20
222.4892757244996915
 30
0.0
 10
325.008437593714973
 20
220.9119607696684966
 30
0.0
 10
323.7816371349646261
 20
217.0563019911921003
 30
0.0
 10
322.2043222594281815
 20
214.6027009503434897
 30
0.0
 10
322.2043222594281815
 20
211.2728138234776054
 30
0.0
 10
317.1218632160333186
 20
211.2728138234776054
 30
0.0
 10
315.8950627572828012
 20
208.9944699998324893
 30
0.0
 10
315.8950627572828012
 20
203.9120107009318872
 30
0.0
 10
314.6682622985322837
 20
201.458409660083305
 30
0.0
 10
315.7198055488897808
 20
198.128522533217307
 30
0.0
 10
320.1012357587130737
 20
194.7986354063513943
 30
0.0
 10
321.3280362174634774
 20
192.1697771482992891
 30
0.0
 10
321.3280362174634774
 20
190.5924621934680943
 30
0.0
 10
316.5960915908544848
 20
191.46874827948551
 30
0.0
 10
316.5960915908544848
 20
190.7677194106715888
 30
0.0
 10
316.5960915908544848
 20
187.4378322838057045
 30
0.0
 10
316.5960915908544848
 20
184.9842312429570939
 30
0.0
 10
314.3177478817464134
 20
184.9842312429570939
 30
0.0
 10
310.1115748803161978
 20
184.9842312429570939
 30
0.0
 10
311.2457586405058123
 20
179.9017719440564065
 30
0.0
 10
313.2662046313889164
 20
177.9739425548183078
 30
0.0
 10
318.6991780915695927
 20
176.0461131655800955
 30
0.0
 10
325.008437593714973
 20
174.6440554279523099
 30
0.0
 10
329.0393533867523956
 20
173.7677693419350078
 30
0.0
 10
327.1115240944300808
 20
172.1904543871038129
 30
0.0
 10
327.1115240944300808
 20
170.4378822150690098
 30
0.0
 10
327.1115240944300808
 20
168.8605672602377865
 30
0.0
 10
329.389867803538209
 20
167.6337667398134954
 30
0.0
 10
331.4929543042533169
 20
167.6337667398134954
 30
0.0
 10
331.4929543042533169
 20
165.7059373505753115
 30
0.0
 10
333.4207835965755748
 20
163.0770790925232916
 30
0.0
 10
335.8743845140764961
 20
163.0770790925232916
 30
0.0
 10
338.1527282231846243
 20
163.0770790925232916
 30
0.0
 10
341.025989780169084
 20
164.4292022461370948
 30
0.0
 10
342.2401147618498953
 20
169.0879849077329027
 30
0.0
 10
343.4698705589095766
 20
169.5118936604841906
 30
0.0
 10
344.4431850126089216
 20
160.4422916492596016
 30
0.0
 10
272.2711553619856772
 20
157.4704180255259018
 30
0.0
 10
272.6834790051540267
 20
159.8194837840088951
 30
0.0
 10
273.8665128893143788
 20
163.9230694386270102
 30
0.0
 10
277.6916356851901924
 20
163.0178244861143924
 30
0.0
 10
281.9843860083307732
 20
160.8714492166413947
 30
0.0
 10
286.7163306349398226
 20
160.8714492166413947
 30
0.0
 10
288.994674344047894
 20
163.1497930402865109
 30
0.0
 10
288.994674344047894
 20
169.1085384252045003
 30
0.0
 10
291.7987896783346855
 20
171.5621394660531109
 30
0.0
 10
295.8297054713721081
 20
174.5415121585120914
 30
0.0
 10
302.6445445372431777
 20
174.5415121585120914
 30
0.0
 10
304.7678230994113733
 20
182.4280869326682932
 30
0.0
 10
297.932791972087216
 20
184.0054018874994881
 30
0.0
 10
297.932791972087216
 20
188.5620895347896919
 30
0.0
 10
294.6029050126215907
 20
188.5620895347896919
 30
0.0
 10
292.4998185119064829
 20
189.7888900552140115
 30
0.0
 10
294.0771333874428137
 20
191.8919766616556046
 30
0.0
 10
296.8812487217297189
 20
194.3455777025041868
 30
0.0
 10
299.8606212644094171
 20
196.0981498745389047
 30
0.0
 10
297.0565059301226256
 20
201.0053519562360975
 30
0.0
 10
298.8090780140518063
 20
203.8094674314916119
 30
0.0
 10
298.8090780140518063
 20
208.5414122959853103
 30
0.0
 10
293.3761045538710732
 20
211.8712994228511945
 30
0.0
 10
290.0462175944053911
 20
215.2011865497171925
 30
0.0
 10
290.0462175944053911
 20
220.2836458486177946
 30
0.0
 10
291.0977608447630018
 20
221.8609608034491032
 30
0.0
 10
289.6957031776195777
 20
226.2423912335358125
 30
0.0
 10
286.3658162181540092
 20
231.6753649668434036
 30
0.0
 10
287.9431310936903969
 20
233.7784515732851105
 30
0.0
 10
284.9637585510105282
 20
237.8093675689648023
 30
0.0
 10
282.6854148419025137
 20
236.5825670485405112
 30
0.0
 10
278.8297562572579977
 20
237.9846247861684105
 30
0.0
 10
280.4070711327943854
 20
239.7371969582029863
 30
0.0
 10
283.0359292586883271
 20
242.5413124334585859
 30
0.0
 10
284.087472509045881
 20
244.6443990399002075
 30
0.0
 10
282.1596432167236799
 20
248.1495433839695863
 30
0.0
 10
278.6544990488652047
 20
246.9227428635452952
 30
0.0
 10
277.602955798507594
 20
251.3041732936320898
 30
0.0
 10
279.1802706740439248
 20
254.2835459860910134
 30
0.0
 10
277.602955798507594
 20
258.664976416177808
 30
0.0
 10
272.5204967551126742
 20
256.7371470269396241
 30
0.0
 10
268.8400953788611787
 20
253.0567454656666939
 30
0.0
 10
264.8091795858239266
 20
253.0567454656666939
 30
0.0
 10
263.7576363354663158
 20
256.2113753753292258
 30
0.0
 10
265.1596940026096831
 20
260.5928058054159919
 30
0.0
 10
267.1431728049701064
 20
264.0638938840453989
 30
0.0
 10
267.2537106582814772
 20
268.0275839387981023
 30
0.0
 10
264.6997944075940836
 20
270.7831646811973201
 30
0.0
 10
263.3118024556392243
 20
271.8368093472660121
 30
0.0
 10
258.3118024556392243
 20
274.2387987509084724
 30
0.0
 10
257.1482903390506749
 20
274.4748195825462176
 30
0.0
 10
254.3074612897009104
 20
274.4234865218920163
 30
0.0
 10
251.8401461647472104
 20
271.0900759655324919
 30
0.0
 10
251.8401461647472104
 20
266.2010367559270207
 30
0.0
 10
255.5205475409987059
 20
258.3144619817708758
 30
0.0
 10
253.2422038318906061
 20
254.6340604204980025
 30
0.0
 10
249.5618024556391106
 20
260.9433202398229241
 30
0.0
 10
245.0051150374229962
 20
260.9433202398229241
 30
0.0
 10
245.0051150374229962
 20
255.1598320721084008
 30
0.0
 10
246.9329443297451974
 20
251.6546877280389936
 30
0.0
 10
245.5308866626018016
 20
250.2526299904112932
 30
0.0
 10
242.7267713283148964
 20
249.0258294699870021
 30
0.0
 10
240.6236848275997886
 20
244.9949134743071113
 30
0.0
 10
243.9535717870654139
 20
242.7165696506619952
 30
0.0
 10
242.5515141199219897
 20
239.3866825237961109
 30
0.0
 10
239.3968843688492996
 20
236.5825670485405112
 30
0.0
 10
237.4690550765270984
 20
235.0052520937094016
 30
0.0
 10
235.1907113674191123
 20
236.7578242657440057
 30
0.0
 10
233.2628820750969112
 20
236.7578242657440057
 30
0.0
 10
233.2628820750969112
 20
235.5310237453196862
 30
0.0
 10
233.2628820750969112
 20
226.9434201023497053
 30
0.0
 10
229.582480698845302
 20
225.3661051475185104
 30
0.0
 10
228.3556802400948982
 20
222.5619896722629107
 30
0.0
 10
229.4072234904525089
 20
219.9331314142108909
 30
0.0
 10
229.4072234904525089
 20
218.355816459379696
 30
0.0
 10
228.1804230317019062
 20
214.5001576809032997
 30
0.0
 10
226.6031081561656038
 20
212.0465566400546891
 30
0.0
 10
226.6031081561656038
 20
208.7166695131888048
 30
0.0
 10
221.5206491127707125
 20
208.7166695131888048
 30
0.0
 10
220.293848654020195
 20
206.4383256895436887
 30
0.0
 10
220.293848654020195
 20
201.3558663906430866
 30
0.0
 10
219.067048195269706
 20
198.9022653497943907
 30
0.0
 10
220.1185914456272883
 20
195.5723782229285064
 30
0.0
 10
224.5000216554504959
 20
192.2424910960625937
 30
0.0
 10
225.7268221142010134
 20
189.6136328380104885
 30
0.0
 10
225.7268221142010134
 20
188.0363178831792936
 30
0.0
 10
220.9948774875919071
 20
188.9126039691965957
 30
0.0
 10
220.9948774875919071
 20
188.2115751003827882
 30
0.0
 10
220.9948774875919071
 20
184.8816879735169039
 30
0.0
 10
220.9948774875919071
 20
182.4280869326682932
 30
0.0
 10
218.7165337784838925
 20
182.4280869326682932
 30
0.0
 10
214.5103607770535916
 20
182.4280869326682932
 30
0.0
 10
215.6445445372432062
 20
177.3456276337676059
 30
0.0
 10
217.6649905281263102
 20
175.4177982445293935
 30
0.0
 10
223.0979639883071002
 20
173.4899688552912949
 30
0.0
 10
229.4072234904525089
 20
172.0879111176635092
 30
0.0
 10
233.4381392834897895
 20
171.2116250316460935
 30
0.0
 10
231.5103099911675884
 20
169.6343100768148986
 30
0.0
 10
231.5103099911675884
 20
167.8817379047802092
 30
0.0
 10
231.5103099911675884
 20
166.3044229499489859
 30
0.0
 10
233.7886537002756882
 20
165.0776224295246948
 30
0.0
 10
235.891740200990796
 20
165.0776224295246948
 30
0.0
 10
235.891740200990796
 20
163.1497930402865109
 30
0.0
 10
237.8195694933129971
 20
160.520934782234491
 30
0.0
 10
240.2731704108140036
 20
160.520934782234491
 30
0.0
 10
242.5515141199219897
 20
160.520934782234491
 30
0.0
 10
245.4247756769065063
 20
161.8730579358482942
 30
0.0
 10
246.6389006585872039
 20
166.5318405974441021
 30
0.0
 10
247.8686564556469989
 20
166.9557493501955037
 30
0.0
 10
248.841970909346287
 20
157.8861473389706873
 30
0.0
  0
LINE
  5
F4
100
AcDbEntity
100
AcDbLine
  8
Visible (ISO)
 62
256
370
-1
  6
ByLayer
 10
258.3118024556392243
 20
211.4390496383587106
 30
0.0
 11
258.3118024556392243
 21
274.2387987509084724
 31
0.0
  0
LINE
  5
F5
100
AcDbEntity
100
AcDbLine
  8
Visible (ISO)
 62
256
370
-1
  6
ByLayer
 10
263.3118024556392243
 20
271.8368093472660121
 30
0.0
 11
263.3118024556392243
 21
211.4390496383587106
 31
0.0
  0
LINE
  5
F6
100
AcDbEntity
100
AcDbLine
  8
Visible (ISO)
 62
256
370
-1
  6
ByLayer
 10
263.3118024556392243
 20
211.4390496383587106
 30
0.0
 11
258.3118024556392243
 21
211.4390496383587106
 31
0.0
  0
LINE
  5
F7
100
AcDbEntity
100
AcDbLine
  8
Visible (ISO)
 62
256
370
-1
  6
ByLayer
 10
282.8005715817429859
 20
149.8890496383586992
 30
0.0
 11
283.1668667936888824
 21
149.8890496383586992
 31
0.0
  0
LINE
  5
F8
100
AcDbEntity
100
AcDbLine
  8
Visible (ISO)
 62
256
370
-1
  6
ByLayer
 10
283.3061870186909914
 20
149.8890496383586992
 30
0.0
 11
283.1668667936888824
 21
149.8890496383586992
 31
0.0
  0
LINE
  5
F9
100
AcDbEntity
100
AcDbLine
  8
Visible (ISO)
 62
256
370
-1
  6
ByLayer
 10
238.4455072436931005
 20
149.8890496383586992
 30
0.0
 11
238.3061870186911051
 21
149.8890496383586992
 31
0.0
  0
LINE
  5
FA
100
AcDbEntity
100
AcDbLine
  8
Visible (ISO)
 62
256
370
-1
  6
ByLayer
 10
238.4455072436931005
 20
149.8890496383586992
 30
0.0
 11
238.8118024556391106
 21
149.8890496383586992
 31
0.0
  0
LINE
  5
FB
100
AcDbEntity
100
AcDbLine
  8
Visible (ISO)
 62
256
370
-1
  6
ByLayer
 10
283.1668667936888824
 20
149.4390496383587106
 30
0.0
 11
283.1668667936888824
 21
149.8890496383586992
 31
0.0
  0
LINE
  5
FC
100
AcDbEntity
100
AcDbLine
  8
Visible (ISO)
 62
256
370
-1
  6
ByLayer
 10
238.4455072436931005
 20
149.4390496383587106
 30
0.0
 11
238.4455072436931005
 21
149.8890496383586992
 31
0.0
  0
LINE
  5
FD
100
AcDbEntity
100
AcDbLine
  8
Visible (ISO)
 62
256
370
-1
  6
ByLayer
 10
283.3061870186909914
 20
149.4390496383587106
 30
0.0
 11
283.3061870186909914
 21
149.8890496383586992
 31
0.0
  0
LINE
  5
FE
100
AcDbEntity
100
AcDbLine
  8
Visible (ISO)
 62
256
370
-1
  6
ByLayer
 10
238.3061870186911051
 20
149.4390496383587106
 30
0.0
 11
238.3061870186911051
 21
149.8890496383586992
 31
0.0
  0
LINE
  5
FF
100
AcDbEntity
100
AcDbLine
  8
Visible (ISO)
 62
256
370
-1
  6
ByLayer
 10
238.4455072436931005
 20
149.4390496383587106
 30
0.0
 11
235.8118024556391106
 21
149.4390496383587106
 31
0.0
  0
LINE
  5
100
100
AcDbEntity
100
AcDbLine
  8
Visible (ISO)
 62
256
370
-1
  6
ByLayer
 10
285.8005715817429859
 20
149.4390496383587106
 30
0.0
 11
283.1668667936888824
 21
149.4390496383587106
 31
0.0
  0
LINE
  5
101
100
AcDbEntity
100
AcDbLine
  8
Visible (ISO)
 62
256
370
-1
  6
ByLayer
 10
238.8118024556391106
 20
149.8896910456921034
 30
0.0
 11
238.8118024556391106
 21
149.8890496383586992
 31
0.0
  0
LINE
  5
102
100
AcDbEntity
100
AcDbLine
  8
Visible (ISO)
 62
256
370
-1
  6
ByLayer
 10
282.8005715817429859
 20
149.8890496383586992
 30
0.0
 11
282.8005715817429859
 21
149.8896910456921034
 31
0.0
  0
SPLINE
  5
103
  8
Visible (ISO)
 62
256
370
-1
  6
ByLayer
100
AcDbEntity
100
AcDbSpline
 70
8
 71
2
 72
6
 73
3
 74
0
 40
0.0
 40
0.0
 40
0.0
 40
1.0
 40
1.0
 40
1.0
 10
273.2160592821708178
 20
155.1248714916052904
 30
0.0
 10
275.4571857649434037
 20
151.2978049183795974
 30
0.0
 10
282.800571581749125
 20
149.8896910456909097
 30
0.0
  0
LINE
  5
104
100
AcDbEntity
100
AcDbLine
  8
Visible (ISO)
 62
256
370
-1
  6
ByLayer
 10
285.8005715817429859
 20
149.4390496383587106
 30
0.0
 11
285.8005715817429859
 21
146.4390496383587106
 31
0.0
  0
SPLINE
  5
105
  8
Visible (ISO)
 62
256
370
-1
  6
ByLayer
100
AcDbEntity
100
AcDbSpline
 70
8
 71
3
 72
12
 73
8
 74
0
 40
0.0
 40
0.0
 40
0.0
 40
0.0
 40
0.2
 40
0.4
 40
0.6000000000000001
 40
0.8
 40
1.0
 40
1.0
 40
1.0
 40
1.0
 10
272.2711553619856772
 20
157.4704180255259018
 30
0.0
 10
272.2261313427424056
 20
157.2139098585406032
 30
0.0
 10
272.2316395265686992
 20
156.9510598572958031
 30
0.0
 10
272.3221868085007031
 20
156.5377314026486886
 30
0.0
 10
272.376267722969601
 20
156.3836404808089071
 30
0.0
 10
272.5205573172946742
 20
156.0919789035216922
 30
0.0
 10
272.6102283706322851
 20
155.9554949861667126
 30
0.0
 10
272.7154358096727265
 20
155.831386624463704
 30
0.0
  0
SPLINE
  5
106
  8
Visible (ISO)
 62
256
370
-1
  6
ByLayer
100
AcDbEntity
100
AcDbSpline
 70
8
 71
3
 72
10
 73
6
 74
0
 40
0.0
 40
0.0
 40
0.0
 40
0.0
 40
0.3333333333333333
 40
0.6666666666666666
 40
1.0
 40
1.0
 40
1.0
 40
1.0
 10
272.7154358096727265
 20
155.831386624463704
 30
0.0
 10
272.7157531833639723
 20
155.8310122333633956
 30
0.0
 10
272.8093326892196728
 20
155.7205878692680017
 30
0.0
 10
272.9865935377205233
 20
155.491996685370907
 30
0.0
 10
273.1431642168639087
 20
155.2493509754422973
 30
0.0
 10
273.2160592821708178
 20
155.1248714916052052
 30
0.0
  0
SPLINE
  5
107
  8
Visible (ISO)
 62
256
370
-1
  6
ByLayer
100
AcDbEntity
100
AcDbSpline
 70
8
 71
3
 72
12
 73
8
 74
0
 40
0.0
 40
0.0
 40
0.0
 40
0.0
 40
0.2
 40
0.4
 40
0.6000000000000001
 40
0.8
 40
1.0
 40
1.0
 40
1.0
 40
1.0
 10
247.7170789664351105
 20
154.1582668707654875
 30
0.0
 10
248.1330324214164875
 20
154.659146333343898
 30
0.0
 10
248.4471762377114032
 20
155.2364820744469966
 30
0.0
 10
248.7441958551565904
 20
156.1845175028740869
 30
0.0
 10
248.812730526575109
 20
156.5209101676886121
 30
0.0
 10
248.8799744571055896
 20
157.2024016683749039
 30
0.0
 10
248.8785062191932127
 20
157.5457016398356984
 30
0.0
 10
248.841970909346287
 20
157.8861473389706873
 30
0.0
  0
SPLINE
  5
108
  8
Visible (ISO)
 62
256
370
-1
  6
ByLayer
100
AcDbEntity
100
AcDbSpline
 70
8
 71
2
 72
6
 73
3
 74
0
 40
0.0
 40
0.0
 40
0.0
 40
1.0
 40
1.0
 40
1.0
 10
247.7170789664288861
 20
154.1582668707580979
 30
0.0
 10
245.1875287879749976
 20
151.1122536239091119
 30
0.0
 10
238.8118024556385137
 20
149.8896910456919898
 30
0.0
  0
LINE
  5
109
100
AcDbEntity
100
AcDbLine
  8
Visible (ISO)
 62
256
370
-1
  6
ByLayer
 10
235.8118024556391106
 20
146.4390496383587106
 30
0.0
 11
285.8005715817429859
 21
146.4390496383587106
 31
0.0
  0
LINE
  5
10A
100
AcDbEntity
100
AcDbLine
  8
Visible (ISO)
 62
256
370
-1
  6
ByLayer
 10
235.8118024556391106
 20
149.4390496383587106
 30
0.0
 11
235.8118024556391106
 21
146.4390496383587106
 31
0.0
  0
CIRCLE
  5
10B
100
AcDbEntity
100
AcDbCircle
  8
Visible (ISO)
 62
256
370
-1
  6
ByLayer
 10
139.3880730453676904
 20
258.2716451539666878
 30
0.0
 40
1.5
  0
CIRCLE
  5
10C
100
AcDbEntity
100
AcDbCircle
  8
Visible (ISO)
 62
256
370
-1
  6
ByLayer
 10
157.0657425750314076
 20
240.593975624302999
 30
0.0
 40
1.5
  0
LINE
  5
10D
100
AcDbEntity
100
AcDbLine
  8
Visible (ISO)
 62
256
370
-1
  6
ByLayer
 10
173.2269078101996058
 20
251.932810389134886
 30
0.0
 11
173.2269078101996058
 21
246.932810389134886
 31
0.0
  0
LINE
  5
10E
100
AcDbEntity
100
AcDbLine
  8
Visible (ISO)
 62
256
370
-1
  6
ByLayer
 10
173.2269078101996058
 20
246.932810389134886
 30
0.0
 11
150.7269078101994921
 21
246.932810389134886
 31
0.0
  0
LINE
  5
10F
100
AcDbEntity
100
AcDbLine
  8
Visible (ISO)
 62
256
370
-1
  6
ByLayer
 10
150.7269078101994921
 20
246.932810389134886
 30
0.0
 11
150.7269078101994921
 21
224.432810389134886
 31
0.0
  0
LINE
  5
110
100
AcDbEntity
100
AcDbLine
  8
Visible (ISO)
 62
256
370
-1
  6
ByLayer
 10
150.7269078101994921
 20
224.432810389134886
 30
0.0
 11
145.7269078101996058
 21
224.432810389134886
 31
0.0
  0
LINE
  5
111
100
AcDbEntity
100
AcDbLine
  8
Visible (ISO)
 62
256
370
-1
  6
ByLayer
 10
145.7269078101996058
 20
224.432810389134886
 30
0.0
 11
145.7269078101996058
 21
246.932810389134886
 31
0.0
  0
LINE
  5
112
100
AcDbEntity
100
AcDbLine
  8
Visible (ISO)
 62
256
370
-1
  6
ByLayer
 10
145.7269078101996058
 20
246.932810389134886
 30
0.0
 11
123.2269078101996058
 21
246.932810389134886
 31
0.0
  0
LINE
  5
113
100
AcDbEntity
100
AcDbLine
  8
Visible (ISO)
 62
256
370
-1
  6
ByLayer
 10
145.7269078101996058
 20
251.932810389134886
 30
0.0
 11
145.7269078101996058
 21
274.432810389134886
 31
0.0
  0
LINE
  5
114
100
AcDbEntity
100
AcDbLine
  8
Visible (ISO)
 62
256
370
-1
  6
ByLayer
 10
145.7269078101996058
 20
274.432810389134886
 30
0.0
 11
150.7269078101994921
 21
274.432810389134886
 31
0.0
  0
LINE
  5
115
100
AcDbEntity
100
AcDbLine
  8
Visible (ISO)
 62
256
370
-1
  6
ByLayer
 10
150.7269078101994921
 20
274.432810389134886
 30
0.0
 11
150.7269078101994921
 21
251.932810389134886
 31
0.0
  0
LINE
  5
116
100
AcDbEntity
100
AcDbLine
  8
Visible (ISO)
 62
256
370
-1
  6
ByLayer
 10
150.7269078101994921
 20
251.932810389134886
 30
0.0
 11
173.2269078101996058
 21
251.932810389134886
 31
0.0
  0
LINE
  5
117
100
AcDbEntity
100
AcDbLine
  8
Visible (ISO)
 62
256
370
-1
  6
ByLayer
 10
123.2269078101996058
 20
246.932810389134886
 30
0.0
 11
123.2269078101996058
 21
251.932810389134886
 31
0.0
  0
LINE
  5
118
100
AcDbEntity
100
AcDbLine
  8
Visible (ISO)
 62
256
370
-1
  6
ByLayer
 10
123.2269078101996058
 20
251.932810389134886
 30
0.0
 11
145.7269078101996058
 21
251.932810389134886
 31
0.0
  0
CIRCLE
  5
119
100
AcDbEntity
100
AcDbCircle
  8
Visible (ISO)
 62
256
370
-1
  6
ByLayer
 10
148.2269078101996058
 20
249.432810389134886
 30
0.0
 40
27.5
  0
CIRCLE
  5
11A
100
AcDbEntity
100
AcDbCircle
  8
Visible (ISO)
 62
256
370
-1
  6
ByLayer
 10
147.1238168782388129
 20
176.9982089558781126
 30
0.0
 40
1.5
  0
LINE
  5
11B
100
AcDbEntity
100
AcDbLine
  8
Visible (ISO)
 62
256
370
-1
  6
ByLayer
 10
144.1238168782388129
 20
176.9982089558781126
 30
0.0
 11
144.1238168782388129
 21
167.1991058349003083
 31
0.0
  0
ARC
  5
11C
100
AcDbEntity
  8
Visible (ISO)
 62
256
370
-1
  6
ByLayer
100
AcDbCircle
 10
147.1238168782388129
 20
176.9982089558781126
 30
0.0
 40
3.0
100
AcDbArc
 50
0.0
 51
180.0
  0
LINE
  5
11D
100
AcDbEntity
100
AcDbLine
  8
Visible (ISO)
 62
256
370
-1
  6
ByLayer
 10
150.1238168782388129
 20
167.1991058349003083
 30
0.0
 11
150.1238168782388129
 21
176.9982089558781126
 31
0.0
  0
ARC
  5
11E
100
AcDbEntity
  8
Visible (ISO)
 62
256
370
-1
  6
ByLayer
100
AcDbCircle
 10
147.1238168782388129
 20
189.4982089558781126
 30
0.0
 40
22.5
100
AcDbArc
 50
277.6622556607661068
 51
82.3377443392339359
  0
ARC
  5
11F
100
AcDbEntity
  8
Visible (ISO)
 62
256
370
-1
  6
ByLayer
100
AcDbCircle
 10
147.1238168782388129
 20
189.4982089558781126
 30
0.0
 40
22.5
100
AcDbArc
 50
97.6622556607660641
 51
262.3377443392338932
  0
CIRCLE
  5
120
100
AcDbEntity
100
AcDbCircle
  8
Visible (ISO)
 62
256
370
-1
  6
ByLayer
 10
147.1238168782388129
 20
201.9982089558781126
 30
0.0
 40
1.5
  0
LINE
  5
121
100
AcDbEntity
100
AcDbLine
  8
Visible (ISO)
 62
256
370
-1
  6
ByLayer
 10
144.1238168782388129
 20
201.9982089558781126
 30
0.0
 11
144.1238168782388129
 21
211.7973120768558886
 31
0.0
  0
LINE
  5
122
100
AcDbEntity
100
AcDbLine
  8
Visible (ISO)
 62
256
370
-1
  6
ByLayer
 10
150.1238168782388129
 20
211.7973120768558886
 30
0.0
 11
150.1238168782388129
 21
201.9982089558781126
 31
0.0
  0
ARC
  5
123
100
AcDbEntity
  8
Visible (ISO)
 62
256
370
-1
  6
ByLayer
100
AcDbCircle
 10
147.1238168782388129
 20
201.9982089558781126
 30
0.0
 40
3.0
100
AcDbArc
 50
180.0
 51
0.0
  0
CIRCLE
  5
124
100
AcDbEntity
100
AcDbCircle
  8
Visible (ISO)
 62
256
370
-1
  6
ByLayer
 10
147.1238168782388129
 20
189.4982089558781126
 30
0.0
 40
27.5
  0
ENDSEC
  0
SECTION
  2
OBJECTS
  0
DICTIONARY
  5
C
100
AcDbDictionary
280
0
281
1
  3
ACAD_GROUP
350
D
  3
ACAD_LAYOUT
350
1A
  3
ACAD_MLINESTYLE
350
17
  3
ACAD_PLOTSETTINGS
350
19
  3
ACAD_PLOTSTYLENAME
350
E
  3
AcDbVariableDictionary
350
125
  0
DICTIONARY
  5
D
100
AcDbDictionary
280
0
281
1
  0
ACDBDICTIONARYWDFLT
  5
E
100
AcDbDictionary
281
1
  3
Normal
350
F
100
AcDbDictionaryWithDefault
340
F
  0
ACDBPLACEHOLDER
  5
F
  0
DICTIONARY
  5
17
100
AcDbDictionary
280
0
281
1
  3
Standard
350
18
  0
MLINESTYLE
  5
18
100
AcDbMlineStyle
  2
STANDARD
 70
0
  3

 62
256
 51
90.0
 52
90.0
 71
2
 49
0.5
 62
256
  6
BYLAYER
 49
-0.5
 62
256
  6
BYLAYER
  0
DICTIONARY
  5
19
100
AcDbDictionary
280
0
281
1
  0
DICTIONARY
  5
1A
100
AcDbDictionary
281
1
  3
Layout1
350
1E
  3
Layout2
350
26
  3
Model
350
22
  0
LAYOUT
  5
1E
100
AcDbPlotSettings
  1

  2
C:\Program Files\AutoCAD 2002\plotters\DWF ePlot (optimized for plotting).pc3
  4

  6

 40
0.0
 41
0.0
 42
0.0
 43
0.0
 44
0.0
 45
0.0
 46
0.0
 47
0.0
 48
0.0
 49
0.0
140
0.0
141
0.0
142
1.0
143
1.0
 70
688
 72
0
 73
0
 74
5
  7

 75
16
147
1.0
148
0.0
149
0.0
100
AcDbLayout
  1
Layout1
 70
1
 71
1
 10
0.0
 20
0.0
 11
420.0
 21
297.0
 12
0.0
 22
0.0
 32
0.0
 14
100000000000000000000.0
 24
100000000000000000000.0
 34
100000000000000000000.0
 15
-100000000000000000000.0
 25
-100000000000000000000.0
 35
-100000000000000000000.0
146
0.0
 13
0.0
 23
0.0
 33
0.0
 16
1.0
 26
0.0
 36
0.0
 17
0.0
 27
1.0
 37
0.0
 76
0
330
1B
  0
LAYOUT
  5
22
100
AcDbPlotSettings
  1

  2
C:\Program Files\AutoCAD 2002\plotters\DWF ePlot (optimized for plotting).pc3
  4

  6

 40
0.0
 41
0.0
 42
0.0
 43
0.0
 44
0.0
 45
0.0
 46
0.0
 47
0.0
 48
0.0
 49
0.0
140
0.0
141
0.0
142
1.0
143
1.0
 70
1712
 72
0
 73
0
 74
0
  7

 75
0
147
1.0
148
0.0
149
0.0
100
AcDbLayout
  1
Model
 70
1
 71
0
 10
0.0
 20
0.0
 11
12.0
 21
9.0
 12
0.0
 22
0.0
 32
0.0
 14
0.0
 24
0.0
 34
0.0
 15
0.0
 25
0.0
 35
0.0
146
0.0
 13
0.0
 23
0.0
 33
0.0
 16
1.0
 26
0.0
 36
0.0
 17
0.0
 27
1.0
 37
0.0
 76
0
330
1F
  0
LAYOUT
  5
26
100
AcDbPlotSettings
  1

  2
C:\Program Files\AutoCAD 2002\plotters\DWF ePlot (optimized for plotting).pc3
  4

  6

 40
0.0
 41
0.0
 42
0.0
 43
0.0
 44
0.0
 45
0.0
 46
0.0
 47
0.0
 48
0.0
 49
0.0
140
0.0
141
0.0
142
1.0
143
1.0
 70
688
 72
0
 73
0
 74
5
  7

 75
16
147
1.0
148
0.0
149
0.0
100
AcDbLayout
  1
Layout2
 70
1
 71
2
 10
0.0
 20
0.0
 11
12.0
 21
9.0
 12
0.0
 22
0.0
 32
0.0
 14
0.0
 24
0.0
 34
0.0
 15
0.0
 25
0.0
 35
0.0
146
0.0
 13
0.0
 23
0.0
 33
0.0
 16
1.0
 26
0.0
 36
0.0
 17
0.0
 27
1.0
 37
0.0
 76
0
330
23
  0
DICTIONARY
  5
125
100
AcDbDictionary
281
1
  3
DIMASSOC
350
127
  3
HIDETEXT
350
126
  0
DICTIONARYVAR
  5
126
100
DictionaryVariables
280
0
  1
2
  0
DICTIONARYVAR
  5
127
100
DictionaryVariables
280
0
  1
1
  0
ENDSEC
  0
EOF
